<svg width="1500" height="500" viewBox="0 0 1500 500" fill="none" xmlns="http://www.w3.org/2000/svg">
<rect width="1500" height="500" fill="white"/>
<path d="M1285.84 282.278V413.354L1307.76 449.085L1309.43 451.803H1395.94L1397.69 282.278H1285.84Z" fill="#E6E6E6"/>
<path opacity="0.1" d="M1285.84 282.278V413.354L1307.76 449.085L1309.11 282.278H1285.84Z" fill="black"/>
<path d="M1076.99 278.782V409.859L1055.06 445.59L1053.39 448.307H966.884L965.136 278.782H1076.99Z" fill="#E6E6E6"/>
<path opacity="0.1" d="M1076.99 278.782V409.859L1055.06 445.59L1053.72 278.782H1076.99Z" fill="black"/>
<path d="M1423.9 276.161V284.025H953.776V272.665L997.468 249.945H1385.46L1423.9 276.161Z" fill="#E6E6E6"/>
<path opacity="0.1" d="M1423.9 276.161V284.025H953.776V272.665L1423.9 276.161Z" fill="black"/>
<path d="M1021.06 315.483H1000.09L991.351 309.367H1030.67L1021.06 315.483Z" fill="#3F3D56"/>
<path d="M1021.06 340.825H1000.09L991.351 334.708H1030.67L1021.06 340.825Z" fill="#3F3D56"/>
<path d="M1021.06 376.653H1000.09L991.351 370.535H1030.67L1021.06 376.653Z" fill="#3F3D56"/>
<path d="M1021.06 412.48H1000.09L991.351 406.363H1030.67L1021.06 412.48Z" fill="#3F3D56"/>
<path d="M1341.76 318.979H1362.74L1371.47 312.862H1332.15L1341.76 318.979Z" fill="#3F3D56"/>
<path d="M1341.76 344.32H1362.74L1371.47 338.203H1332.15L1341.76 344.32Z" fill="#3F3D56"/>
<path d="M1341.76 380.148H1362.74L1371.47 374.031H1332.15L1341.76 380.148Z" fill="#3F3D56"/>
<path d="M1341.76 415.976H1362.74L1371.47 409.859H1332.15L1341.76 415.976Z" fill="#3F3D56"/>
<path d="M1356.04 98.3682H1179.49C1178.61 98.3681 1177.74 98.5407 1176.93 98.8762C1176.12 99.2117 1175.39 99.7036 1174.77 100.324C1174.15 100.944 1173.65 101.68 1173.32 102.49C1172.98 103.3 1172.81 104.168 1172.81 105.045V223.979C1172.81 224.856 1172.98 225.724 1173.32 226.534C1173.65 227.345 1174.15 228.081 1174.77 228.701C1175.39 229.321 1176.12 229.813 1176.93 230.148C1177.74 230.484 1178.61 230.656 1179.49 230.656H1246.51L1244 246.688C1244 246.688 1229.65 254.311 1239.74 254.535C1249.83 254.76 1297.36 254.535 1297.36 254.535C1297.36 254.535 1306.56 254.535 1291.98 246.464L1289.62 230.656H1356.04C1356.92 230.656 1357.79 230.484 1358.6 230.148C1359.41 229.813 1360.15 229.321 1360.77 228.701C1361.39 228.081 1361.88 227.345 1362.21 226.534C1362.55 225.724 1362.72 224.856 1362.72 223.979V105.045C1362.72 104.168 1362.55 103.3 1362.21 102.49C1361.88 101.68 1361.39 100.944 1360.77 100.324C1360.15 99.7036 1359.41 99.2117 1358.6 98.8762C1357.79 98.5407 1356.92 98.3681 1356.04 98.3682V98.3682Z" fill="#202B46"/>
<path d="M1356.33 105.431H1179.2V204.535H1356.33V105.431Z" fill="black"/>
<path d="M1267.77 103.413C1268.39 103.413 1268.89 102.911 1268.89 102.292C1268.89 101.673 1268.39 101.171 1267.77 101.171C1267.15 101.171 1266.64 101.673 1266.64 102.292C1266.64 102.911 1267.15 103.413 1267.77 103.413Z" fill="#F2F2F2"/>
<path d="M1267.77 225.836C1270.12 225.836 1272.03 223.928 1272.03 221.576C1272.03 219.223 1270.12 217.315 1267.77 217.315C1265.41 217.315 1263.51 219.223 1263.51 221.576C1263.51 223.928 1265.41 225.836 1267.77 225.836Z" fill="#F2F2F2"/>
<path d="M1261.13 266.643V268.886H1140.5V267.092L1140.66 266.643L1143.64 258.571H1258.66L1261.13 266.643Z" fill="#27234D"/>
<path d="M1307.55 264.448C1307.33 265.388 1306.5 266.379 1304.63 267.316C1297.9 270.679 1284.22 266.419 1284.22 266.419C1284.22 266.419 1273.68 264.625 1273.68 259.917C1273.98 259.714 1274.29 259.531 1274.61 259.367C1277.44 257.871 1286.81 254.179 1303.44 259.524C1304.66 259.908 1305.76 260.625 1306.6 261.595C1306.97 261.961 1307.25 262.411 1307.42 262.907C1307.58 263.403 1307.63 263.931 1307.55 264.448Z" fill="#3F3D56"/>
<path opacity="0.1" d="M1307.55 264.448C1299.32 267.603 1291.98 267.838 1284.45 262.607C1281.6 260.502 1278.15 259.366 1274.61 259.367C1277.44 257.871 1286.81 254.179 1303.44 259.524C1304.66 259.908 1305.76 260.625 1306.6 261.595C1306.97 261.961 1307.25 262.411 1307.42 262.907C1307.58 263.403 1307.63 263.931 1307.55 264.448Z" fill="black"/>
<path opacity="0.1" d="M1260.98 266.677V268.92H1140.36V267.126L1140.52 266.677H1260.98Z" fill="black"/>
<path d="M978.198 66.0935C978.198 66.0935 980.645 86.4841 971.673 88.1154C962.701 89.7466 979.829 117.478 979.829 117.478L1020.61 122.372L1010.82 89.7466C1010.82 89.7466 1004.3 87.2997 1008.38 70.9872C1012.45 54.6747 978.198 66.0935 978.198 66.0935Z" fill="#FFB8B8"/>
<path d="M953.321 416.404L956.584 461.264H973.711L968.818 416.404H953.321Z" fill="#FFB8B8"/>
<path d="M1078.93 331.579L1081.37 369.098L1100.13 360.942L1092.79 329.948L1078.93 331.579Z" fill="#FFB8B8"/>
<path d="M941.087 245.123C941.087 245.123 941.902 292.429 946.796 307.926C951.69 323.423 950.874 324.239 950.059 326.686C949.243 329.132 948.427 327.501 948.427 331.579C948.427 335.657 946.796 400.092 948.427 405.801C950.059 411.511 943.534 421.298 948.427 422.114C953.321 422.929 976.159 422.114 976.974 417.22C977.79 412.326 970.449 410.695 973.712 407.432C976.974 404.17 981.868 337.289 981.868 337.289L993.287 290.798L1014.49 266.329H1059.35L1073.22 320.161C1073.22 320.161 1067.51 335.657 1071.59 335.657C1075.66 335.657 1100.13 340.551 1100.13 322.607C1100.13 304.664 1091.98 251.648 1090.35 250.017C1088.71 248.386 1091.16 242.676 1088.71 240.229C1086.27 237.782 1057.72 220.654 1047.12 217.392C1036.51 214.129 1021.64 210.246 1021.64 210.246L941.087 245.123Z" fill="#2F2E41"/>
<path d="M996.549 79.5513C1010.06 79.5513 1021.02 68.5963 1021.02 55.0825C1021.02 41.5688 1010.06 30.6138 996.549 30.6138C983.036 30.6138 972.081 41.5688 972.081 55.0825C972.081 68.5963 983.036 79.5513 996.549 79.5513Z" fill="#FFB8B8"/>
<path d="M964.74 98.3106C964.74 98.3106 1004.71 106.467 1014.49 93.4169C1024.28 80.3669 1028.36 130.12 1028.36 130.12L1033.25 182.32L1025.91 210.867C1025.91 210.867 987.577 241.861 975.343 244.307C963.109 246.754 944.349 248.386 944.349 248.386C944.349 248.386 950.059 157.851 950.059 156.22C950.059 154.589 964.74 98.3106 964.74 98.3106Z" fill="url(#paint0_linear)"/>
<path d="M976.894 83.0139C976.894 83.0139 968.002 77.92 965.556 82.8138C963.109 87.7075 940.271 99.9419 937.824 99.9419C935.377 99.9419 942.718 167.639 939.456 175.795C936.193 183.951 920.696 243.492 929.668 248.386C938.64 253.279 932.115 243.492 941.087 255.726C950.059 267.961 994.102 267.961 996.549 263.067C998.996 258.173 976.974 221.47 981.052 187.214C985.131 152.958 991.656 105.651 985.946 99.1263C980.237 92.6013 976.894 83.0139 976.894 83.0139Z" fill="#2F2E41"/>
<path d="M1006.34 88.5231L1007.47 84.6134C1007.47 84.6134 1041.41 95.8638 1043.04 103.204C1044.67 110.545 1043.86 161.929 1038.15 166.008C1032.44 170.086 1024.28 176.611 1029.99 186.398C1035.7 196.186 1042.22 206.789 1047.12 207.604C1052.01 208.42 1060.98 214.129 1058.54 219.839C1056.09 225.548 1026.73 214.945 1026.73 214.945C1026.73 214.945 1007.15 200.264 1007.97 177.426C1008.78 154.589 1006.34 88.5231 1006.34 88.5231Z" fill="#2F2E41"/>
<path d="M1034.88 184.767L1015.31 221.47C1015.31 221.47 986.762 250.832 1003.07 254.095C1019.39 257.357 1028.36 227.179 1028.36 227.179L1049.56 197.001L1034.88 184.767Z" fill="#FFB8B8"/>
<path d="M988.263 19.4225C987.277 19.3495 986.289 19.5411 985.402 19.9776C984.599 20.5636 983.938 21.3214 983.466 22.1958C981.291 25.4682 978.455 28.2495 975.141 30.361C972.667 31.9345 969.522 33.8964 969.945 36.7975C970.175 37.7702 970.584 38.6916 971.151 39.5145C973.441 43.5548 974.353 48.231 973.748 52.8355L980.55 42.9486C981.63 41.3791 983.505 39.6075 985.136 40.5931C985.682 40.9231 986.04 41.5151 986.608 41.8046C987.964 42.4956 989.407 41.1746 990.608 40.239C994.747 37.0126 1000.63 37.8578 1005.78 38.8631C1008.22 39.3377 1010.89 39.9603 1012.33 41.9784C1014.71 45.332 1012.22 50.1776 1013.61 54.0519C1014 53.7786 1014.34 53.4298 1014.59 53.026C1014.84 52.6223 1015.01 52.1719 1015.09 51.7015C1017.03 51.7616 1019.41 51.5704 1020.25 49.8123C1020.5 49.1233 1020.64 48.3964 1020.65 47.6623C1020.95 44.7091 1022.4 42.0148 1023.35 39.204C1024.31 36.3932 1024.72 33.0991 1023.11 30.607C1022.52 29.7626 1021.81 29.0106 1021 28.3757C1011.84 20.6802 999.796 19.4111 988.263 19.4225Z" fill="#2F2E41"/>
<path d="M1034.88 99.9419L1042.48 101.959C1042.48 101.959 1060.17 147.248 1056.09 178.242C1052.01 209.236 1049.56 202.711 1049.56 202.711C1049.56 202.711 1043.04 188.029 1028.36 191.292L1034.88 99.9419Z" fill="#2F2E41"/>
<path d="M954.451 455.335C952.484 458.008 952.879 461.829 951.136 464.653C949.626 467.101 946.78 468.385 944.891 470.554C944.288 471.275 943.751 472.048 943.285 472.864C941.533 475.799 940.109 479.561 941.835 482.512C943.223 484.885 946.141 485.813 948.817 486.445C952.2 487.245 955.714 487.884 959.136 487.273C962.558 486.663 965.902 484.568 967.122 481.313C967.362 480.495 967.647 479.69 967.976 478.903C969.83 475.252 975.647 475.213 977.545 471.584C978.874 469.045 977.653 465.975 976.432 463.382L972.704 455.463C971.467 452.835 966.453 454.346 963.838 453.716C960.429 452.895 956.904 451.99 954.451 455.335Z" fill="#2F2E41"/>
<path d="M927.221 201.079L961.477 254.095C961.477 254.095 982.684 281.011 989.209 268.776C995.734 256.542 966.371 236.151 966.371 236.151L944.349 195.37L927.221 201.079Z" fill="#FFB8B8"/>
<path d="M944.349 101.573L937.824 99.9419C937.824 99.9419 924.774 104.02 921.512 121.148C918.249 138.276 920.696 206.789 924.774 207.604C928.852 208.42 944.916 195.675 947.487 198.377C950.059 201.079 941.902 187.214 944.349 179.873C946.796 172.532 944.349 101.573 944.349 101.573Z" fill="#2F2E41"/>
<path d="M1100.13 354.417C1100.13 354.417 1087.9 350.339 1082.19 362.573C1076.48 374.807 1078.93 378.07 1078.93 378.07C1078.93 378.07 1097.69 384.595 1100.95 381.332C1102.37 379.913 1106.88 379.42 1111.52 379.316C1118.58 379.157 1120.46 369.16 1113.79 366.832C1113.59 366.763 1113.39 366.702 1113.18 366.651C1106.66 365.02 1100.13 354.417 1100.13 354.417Z" fill="#2F2E41"/>
<path d="M1297.23 262.607C1298.84 262.607 1300.14 262.206 1300.14 261.71C1300.14 261.215 1298.84 260.814 1297.23 260.814C1295.62 260.814 1294.31 261.215 1294.31 261.71C1294.31 262.206 1295.62 262.607 1297.23 262.607Z" fill="#11DD31" fill-opacity="0.74"/>
<path d="M987.071 13.0203C985.847 12.9198 984.621 13.1937 983.556 13.8056C982.51 14.5218 981.851 15.7765 981.178 16.9441C978.606 21.4614 975.123 25.3953 970.951 28.4965C967.912 30.7228 964.049 33.4986 964.569 37.6032C964.843 38.9587 965.344 40.2583 966.05 41.4473C968.853 47.1064 976.503 51.4797 975.751 57.9372C978.536 53.2744 974.811 50.9687 977.596 46.3059C978.922 44.0854 981.227 41.5788 983.229 42.9733C983.9 43.4402 984.34 44.2777 985.038 44.6874C986.704 45.665 988.476 43.796 989.951 42.4723C995.036 37.9074 1002.27 39.1033 1008.6 40.5256C1011.58 41.1971 1014.86 42.078 1016.63 44.9332C1018.95 48.6872 1014.42 52.7416 1013.28 56.9858C1013.19 57.3475 1013.18 57.7263 1013.27 58.0901C1013.35 58.4538 1013.52 58.7915 1013.77 59.0744C1014.01 59.3573 1014.32 59.5768 1014.67 59.7143C1015.02 59.8518 1015.39 59.9032 1015.76 59.864C1017.66 59.6767 1019.91 59.5232 1020.02 58.69C1022.41 58.775 1025.34 58.5045 1026.36 56.017C1026.67 55.0328 1026.84 54.0078 1026.85 52.9751C1027.23 48.7967 1029 44.9848 1030.18 41.0079C1031.35 37.0311 1031.86 32.3705 1029.88 28.8446C1029.17 27.6715 1028.3 26.608 1027.28 25.6877C1016.03 14.7997 1001.24 13.0042 987.071 13.0203Z" fill="#2F2E41"/>
<path d="M1251 137.98H1229.92V143.055H1251V137.98Z" fill="#D74323"/>
<path d="M1324 137.98H1316.58V143.055H1324V137.98Z" fill="#D74323"/>
<path d="M1338.84 137.98H1331.42V143.055H1338.84V137.98Z" fill="#D74323"/>
<path d="M1308.78 137.98H1258.42V143.055H1308.78V137.98Z" fill="#D74323"/>
<path d="M1224.45 170.772H1203.37V175.847H1224.45V170.772Z" fill="#D74323"/>
<path d="M1297.46 170.772H1290.04V175.847H1297.46V170.772Z" fill="#D74323"/>
<path d="M1312.29 170.772H1304.87V175.847H1312.29V170.772Z" fill="#D74323"/>
<path d="M1282.23 170.772H1231.87V175.847H1282.23V170.772Z" fill="#D74323"/>
<path d="M1311.51 149.301H1290.43V154.376H1311.51V149.301Z" fill="#D74323"/>
<path d="M1340.01 149.301H1318.93V154.376H1340.01V149.301Z" fill="#D74323"/>
<path d="M1210.79 149.301H1203.37V154.376H1210.79V149.301Z" fill="#D74323"/>
<path d="M1225.63 149.301H1218.21V154.376H1225.63V149.301Z" fill="#D74323"/>
<path d="M1283.4 149.301H1233.04V154.376H1283.4V149.301Z" fill="#D74323"/>
<path d="M1267.79 160.232H1246.71V165.307H1267.79V160.232Z" fill="#D74323"/>
<path d="M1239.29 160.232H1218.21V165.307H1239.29V160.232Z" fill="#D74323"/>
<path d="M1210.79 160.232H1203.37V165.307H1210.79V160.232Z" fill="#D74323"/>
<path d="M1340.01 160.232H1332.59V165.307H1340.01V160.232Z" fill="#D74323"/>
<path d="M1325.17 160.232H1274.81V165.307H1325.17V160.232Z" fill="#D74323"/>
<path d="M152.187 268.816C152.23 268.987 152.251 269.136 152.251 269.264C152.251 269.435 152.251 269.563 152.251 269.648C152.251 270.075 152.145 270.373 151.931 270.544C151.761 270.715 151.398 270.8 150.843 270.8C150.331 270.8 149.99 270.715 149.819 270.544C149.563 270.288 149.222 269.627 148.795 268.56C148.369 267.493 147.921 266.235 147.451 264.784C146.982 263.333 146.513 261.776 146.043 260.112C145.617 258.448 145.233 256.869 144.891 255.376C144.422 255.589 143.782 255.824 142.971 256.08C142.161 256.293 141.329 256.507 140.475 256.72C139.494 256.933 138.47 257.168 137.403 257.424C137.019 259.259 136.721 260.837 136.507 262.16C136.337 263.44 136.166 264.507 135.995 265.36C135.867 266.171 135.675 266.768 135.419 267.152C135.206 267.579 134.843 267.792 134.331 267.792C133.99 267.792 133.691 267.6 133.435 267.216C133.179 266.832 133.051 266.256 133.051 265.488C133.051 265.104 133.158 264.208 133.371 262.8C133.585 261.392 133.819 259.835 134.075 258.128C134.331 256.379 134.587 254.651 134.843 252.944C135.099 251.237 135.27 249.893 135.355 248.912C135.398 248.4 135.526 247.568 135.739 246.416C135.995 245.264 136.251 244.091 136.507 242.896C136.763 241.659 137.019 240.549 137.275 239.568C137.531 238.587 137.702 238.032 137.787 237.904C138.47 236.325 138.897 234.704 139.067 233.04C139.281 231.376 139.43 229.861 139.515 228.496C139.643 227.088 139.835 225.957 140.091 225.104C140.347 224.208 140.881 223.76 141.691 223.76C141.905 223.76 142.118 223.931 142.331 224.272C142.587 224.613 142.822 225.019 143.035 225.488C143.249 225.957 143.419 226.427 143.547 226.896C143.675 227.323 143.761 227.664 143.803 227.92C143.846 228.176 143.889 228.688 143.931 229.456C144.017 230.224 144.081 231.077 144.123 232.016C144.209 232.912 144.273 233.808 144.315 234.704C144.401 235.557 144.465 236.219 144.507 236.688C144.635 238.096 144.827 239.675 145.083 241.424C145.382 243.173 145.681 244.816 145.979 246.352C146.278 247.888 146.555 249.189 146.811 250.256C147.067 251.28 147.259 251.792 147.387 251.792C147.558 251.792 147.771 251.749 148.027 251.664C148.326 251.579 148.603 251.536 148.859 251.536C149.201 251.536 149.371 251.707 149.371 252.048C149.371 252.389 149.286 252.667 149.115 252.88C148.945 253.093 148.753 253.285 148.539 253.456C148.369 253.627 148.198 253.776 148.027 253.904C147.899 254.032 147.835 254.181 147.835 254.352C147.835 254.693 148.027 255.568 148.411 256.976L149.435 260.752C149.521 261.093 149.713 261.669 150.011 262.48C150.31 263.291 150.609 264.144 150.907 265.04C151.249 265.893 151.547 266.683 151.803 267.408C152.059 268.176 152.187 268.645 152.187 268.816ZM137.979 254.16C138.235 254.16 138.705 254.096 139.387 253.968C140.07 253.797 140.774 253.605 141.499 253.392C142.225 253.179 142.865 252.965 143.419 252.752C143.974 252.539 144.251 252.368 144.251 252.24C144.251 252.112 144.166 251.792 143.995 251.28C143.867 250.725 143.697 250.043 143.483 249.232C143.313 248.379 143.121 247.419 142.907 246.352C142.694 245.285 142.502 244.155 142.331 242.96C142.246 242.192 142.139 241.147 142.011 239.824C141.883 238.501 141.755 237.2 141.627 235.92C141.499 234.597 141.393 233.467 141.307 232.528C141.222 231.589 141.179 231.12 141.179 231.12C141.179 231.12 141.115 231.44 140.987 232.08C140.859 232.677 140.71 233.36 140.539 234.128C140.411 234.853 140.283 235.557 140.155 236.24C140.07 236.88 140.027 237.243 140.027 237.328V239.12C140.027 239.205 139.963 239.589 139.835 240.272C139.75 240.912 139.622 241.744 139.451 242.768C139.281 243.749 139.089 244.837 138.875 246.032C138.705 247.184 138.534 248.293 138.363 249.36C138.193 250.427 138.043 251.387 137.915 252.24C137.83 253.051 137.787 253.605 137.787 253.904C137.787 254.075 137.851 254.16 137.979 254.16ZM176.203 255.696C176.203 255.909 176.097 256.123 175.883 256.336C175.713 256.507 175.606 256.699 175.563 256.912C175.563 257.381 175.649 257.829 175.819 258.256C176.033 258.683 176.139 259.195 176.139 259.792C176.139 260.347 175.969 260.624 175.627 260.624C175.201 260.624 174.881 260.688 174.667 260.816C174.497 260.901 174.177 260.987 173.707 261.072C173.451 261.072 173.174 260.837 172.875 260.368C172.705 260.155 172.555 259.899 172.427 259.6C172.427 259.557 172.299 259.643 172.043 259.856C171.83 260.069 171.446 260.325 170.891 260.624C170.379 260.88 169.654 261.136 168.715 261.392C167.819 261.605 166.667 261.712 165.259 261.712C164.065 261.712 163.019 261.456 162.123 260.944C161.227 260.389 160.481 259.685 159.883 258.832C159.329 257.979 158.902 257.019 158.603 255.952C158.347 254.843 158.219 253.733 158.219 252.624C158.219 251.6 158.326 250.64 158.539 249.744C158.795 248.805 159.137 247.995 159.563 247.312C159.99 246.587 160.523 246.011 161.163 245.584C161.803 245.157 162.55 244.944 163.403 244.944C164.214 244.944 165.025 245.2 165.835 245.712C166.646 246.224 167.371 246.779 168.011 247.376C168.651 247.973 169.163 248.528 169.547 249.04C169.974 249.509 170.187 249.744 170.187 249.744C169.59 246.416 169.057 243.408 168.587 240.72C168.374 239.568 168.161 238.437 167.947 237.328C167.777 236.176 167.606 235.152 167.435 234.256C167.265 233.36 167.115 232.613 166.987 232.016C166.902 231.376 166.859 230.992 166.859 230.864C166.817 230.608 166.774 230.16 166.731 229.52C166.689 228.837 166.646 228.133 166.603 227.408C166.561 226.683 166.518 226.021 166.475 225.424C166.433 224.827 166.39 224.443 166.347 224.272C166.219 223.845 166.049 223.312 165.835 222.672C165.665 222.032 165.579 221.669 165.579 221.584C165.579 221.371 165.686 221.115 165.899 220.816C166.113 220.475 166.39 220.304 166.731 220.304C166.987 220.304 167.222 220.325 167.435 220.368C167.649 220.411 167.841 220.539 168.011 220.752C168.182 220.965 168.331 221.307 168.459 221.776C168.63 222.203 168.779 222.821 168.907 223.632C168.95 224.059 169.078 224.869 169.291 226.064C169.505 227.259 169.718 228.56 169.931 229.968C170.145 231.376 170.358 232.72 170.571 234C170.785 235.28 170.934 236.219 171.019 236.816C171.233 238.437 171.51 240.208 171.851 242.128C172.235 244.005 172.619 245.819 173.003 247.568C173.387 249.317 173.771 250.875 174.155 252.24C174.539 253.563 174.881 254.459 175.179 254.928C175.265 255.099 175.435 255.227 175.691 255.312C175.947 255.355 176.118 255.483 176.203 255.696ZM171.467 256.976C171.425 256.848 171.147 256.315 170.635 255.376C170.166 254.395 169.547 253.349 168.779 252.24C168.054 251.088 167.222 250.064 166.283 249.168C165.387 248.272 164.513 247.824 163.659 247.824C162.934 247.824 162.337 248.379 161.867 249.488C161.441 250.597 161.227 251.877 161.227 253.328C161.227 254.949 161.697 256.251 162.635 257.232C163.617 258.213 164.705 258.704 165.899 258.704C166.923 258.704 167.99 258.533 169.099 258.192C170.209 257.851 170.998 257.445 171.467 256.976ZM193.57 243.472C193.57 243.6 193.463 244.155 193.25 245.136C193.036 246.117 192.823 247.227 192.61 248.464C192.482 249.189 192.268 250.277 191.97 251.728C191.714 253.136 191.586 255.291 191.586 258.192C191.586 258.277 191.564 258.512 191.522 258.896C191.522 259.237 191.458 259.6 191.33 259.984C191.244 260.368 191.095 260.731 190.882 261.072C190.668 261.371 190.348 261.52 189.922 261.52C189.538 261.52 189.111 261.349 188.642 261.008C187.575 260.24 186.594 259.344 185.698 258.32C184.802 257.296 184.034 256.187 183.394 254.992C182.754 253.755 182.263 252.475 181.922 251.152C181.58 249.829 181.41 248.485 181.41 247.12C181.41 246.949 181.516 246.8 181.73 246.672C181.986 246.501 182.178 246.416 182.306 246.416C182.946 246.416 183.436 246.779 183.778 247.504C184.162 248.229 184.524 249.104 184.866 250.128C185.25 251.152 185.676 252.24 186.146 253.392C186.658 254.501 187.404 255.461 188.386 256.272C188.514 256.101 188.62 255.781 188.706 255.312C188.791 254.843 188.855 254.437 188.898 254.096C188.94 253.797 189.004 253.221 189.09 252.368C189.175 251.472 189.26 250.533 189.346 249.552C189.474 248.571 189.559 247.632 189.602 246.736C189.687 245.84 189.73 245.221 189.73 244.88C189.73 244.624 189.751 244.325 189.794 243.984C189.836 243.643 189.922 243.323 190.05 243.024C190.22 242.725 190.434 242.469 190.69 242.256C190.946 242.043 191.287 241.936 191.714 241.936C191.927 241.936 192.29 242.085 192.802 242.384C193.314 242.64 193.57 243.003 193.57 243.472ZM217.008 259.28C217.051 259.365 217.072 259.493 217.072 259.664C217.072 259.92 216.88 260.304 216.496 260.816C216.368 260.987 216.091 261.264 215.664 261.648C215.238 262.032 214.662 262.416 213.936 262.8C213.211 263.184 212.315 263.525 211.248 263.824C210.224 264.123 209.008 264.272 207.6 264.272C206.619 264.272 205.659 264.059 204.72 263.632C203.782 263.163 202.95 262.501 202.224 261.648C201.499 260.752 200.902 259.664 200.432 258.384C199.963 257.061 199.728 255.525 199.728 253.776C199.728 252.112 199.942 250.555 200.368 249.104C200.795 247.653 201.328 246.373 201.968 245.264C202.651 244.155 203.398 243.28 204.208 242.64C205.019 242 205.808 241.68 206.576 241.68C207.259 241.68 207.942 241.829 208.624 242.128C209.35 242.384 209.99 242.725 210.544 243.152C211.142 243.579 211.611 244.069 211.952 244.624C212.294 245.136 212.464 245.669 212.464 246.224C212.464 246.864 212.166 247.525 211.568 248.208C211.014 248.891 210.331 249.531 209.52 250.128C208.71 250.683 207.899 251.152 207.088 251.536C206.278 251.877 205.638 252.048 205.168 252.048C204.912 252.048 204.678 251.941 204.464 251.728C204.294 251.472 204.208 251.173 204.208 250.832C204.208 250.235 204.464 249.765 204.976 249.424C205.531 249.083 206.128 248.784 206.768 248.528C207.408 248.229 207.984 247.888 208.496 247.504C209.051 247.12 209.328 246.587 209.328 245.904C209.328 245.819 209.222 245.605 209.008 245.264C208.795 244.923 208.219 244.752 207.28 244.752C206.854 244.752 206.363 245.008 205.808 245.52C205.254 245.989 204.72 246.651 204.208 247.504C203.696 248.315 203.27 249.296 202.928 250.448C202.587 251.557 202.416 252.773 202.416 254.096C202.416 255.205 202.608 256.208 202.992 257.104C203.419 258 203.952 258.768 204.592 259.408C205.232 260.005 205.979 260.475 206.832 260.816C207.686 261.157 208.56 261.328 209.456 261.328C210.096 261.328 210.779 261.2 211.504 260.944C212.272 260.645 212.976 260.347 213.616 260.048C214.299 259.707 214.875 259.408 215.344 259.152C215.856 258.853 216.176 258.704 216.304 258.704C216.432 258.704 216.56 258.768 216.688 258.896C216.859 259.024 216.966 259.152 217.008 259.28ZM240.729 258.128C240.729 258.384 240.643 258.64 240.473 258.896C240.302 259.152 240.089 259.387 239.833 259.6C239.619 259.813 239.363 260.005 239.065 260.176C238.809 260.304 238.574 260.368 238.361 260.368C237.635 260.368 236.697 260.219 235.545 259.92C234.435 259.579 233.539 259.067 232.857 258.384C232.131 257.659 231.491 256.805 230.937 255.824C230.382 254.8 229.763 253.307 229.081 251.344C228.611 253.221 228.057 255.077 227.417 256.912C226.819 258.747 225.838 260.432 224.473 261.968C224.387 262.053 224.259 262.096 224.089 262.096C223.79 262.096 223.47 261.947 223.129 261.648C222.787 261.349 222.617 261.051 222.617 260.752C222.617 260.453 222.574 259.771 222.489 258.704C222.446 257.595 222.382 256.379 222.297 255.056C222.211 253.691 222.126 252.325 222.041 250.96C221.998 249.552 221.977 248.4 221.977 247.504C221.977 247.077 221.998 246.523 222.041 245.84C222.083 245.115 222.211 244.496 222.425 243.984C222.467 243.899 222.617 243.728 222.873 243.472C223.171 243.216 223.491 243.088 223.833 243.088C224.131 243.088 224.302 243.28 224.345 243.664C224.387 244.048 224.409 244.475 224.409 244.944V255.056C224.409 255.269 224.43 255.568 224.473 255.952C224.558 256.336 224.665 256.613 224.793 256.784C225.262 255.76 225.689 254.565 226.073 253.2C226.499 251.792 226.905 250.469 227.289 249.232C227.673 247.952 228.057 246.885 228.441 246.032C228.825 245.136 229.209 244.688 229.593 244.688C230.019 244.688 230.361 244.773 230.617 244.944C230.873 245.115 231.086 245.456 231.257 245.968C231.47 247.205 231.641 248.315 231.769 249.296C231.897 250.235 232.046 251.088 232.217 251.856C232.43 252.624 232.707 253.349 233.049 254.032C233.433 254.672 233.945 255.269 234.585 255.824C235.182 256.379 235.843 256.784 236.569 257.04C237.337 257.296 237.998 257.424 238.553 257.424C238.809 257.424 239.086 257.381 239.385 257.296C239.683 257.168 239.897 257.104 240.025 257.104C240.195 257.104 240.345 257.253 240.473 257.552C240.643 257.851 240.729 258.043 240.729 258.128ZM260.989 237.072C260.434 237.712 259.645 238.352 258.621 238.992C257.597 239.589 256.573 240.144 255.549 240.656C254.525 241.168 253.629 241.616 252.861 242C252.093 242.341 251.709 242.576 251.709 242.704C251.709 242.832 251.794 243.216 251.965 243.856C252.135 244.496 252.327 245.264 252.541 246.16C252.797 247.013 253.053 247.909 253.309 248.848C253.565 249.787 253.778 250.619 253.949 251.344C254.034 251.771 254.141 252.325 254.269 253.008C254.397 253.691 254.503 254.373 254.589 255.056C254.717 255.739 254.823 256.357 254.909 256.912C254.994 257.424 255.037 257.701 255.037 257.744C255.037 258.384 254.93 259.045 254.717 259.728C254.503 260.411 254.162 260.752 253.693 260.752C253.437 260.752 253.202 260.645 252.989 260.432C252.775 260.219 252.583 259.984 252.413 259.728C252.242 259.429 252.114 259.152 252.029 258.896C251.943 258.64 251.901 258.448 251.901 258.32C251.901 258.235 251.901 258.107 251.901 257.936C251.943 257.765 251.965 257.573 251.965 257.36C251.965 256.549 251.837 255.376 251.581 253.84C251.495 253.371 251.325 252.645 251.069 251.664C250.813 250.683 250.557 249.68 250.301 248.656C250.002 247.461 249.661 246.16 249.277 244.752C249.106 244.155 248.999 243.856 248.957 243.856C248.658 243.856 248.146 244.048 247.421 244.432C246.738 244.773 245.949 245.221 245.053 245.776C244.157 246.288 243.218 246.864 242.237 247.504C241.255 248.101 240.338 248.677 239.485 249.232C238.631 249.744 237.906 250.192 237.309 250.576C236.669 250.917 236.285 251.088 236.157 251.088C235.602 251.088 235.154 250.896 234.813 250.512C234.471 250.128 234.301 249.701 234.301 249.232C234.301 248.976 234.663 248.613 235.389 248.144C236.071 247.632 236.946 247.077 238.013 246.48C239.037 245.883 240.167 245.264 241.405 244.624C242.599 243.984 243.709 243.408 244.733 242.896C245.799 242.384 246.674 241.957 247.357 241.616C248.082 241.275 248.445 241.104 248.445 241.104C248.061 239.141 247.741 237.392 247.485 235.856C247.271 234.533 247.058 233.317 246.845 232.208C246.674 231.099 246.589 230.501 246.589 230.416C246.589 229.861 246.695 229.456 246.909 229.2C247.165 228.901 247.442 228.752 247.741 228.752C248.21 228.752 248.509 229.072 248.637 229.712C249.106 232.016 249.533 234.064 249.917 235.856C250.343 237.648 250.749 239.099 251.133 240.208C251.517 240.123 252.178 239.888 253.117 239.504C254.055 239.077 255.037 238.629 256.061 238.16C257.085 237.691 258.002 237.285 258.813 236.944C259.666 236.56 260.157 236.368 260.285 236.368C260.541 236.368 260.69 236.453 260.733 236.624C260.818 236.795 260.903 236.944 260.989 237.072ZM285.522 255.376C285.522 255.76 285.266 256.165 284.754 256.592C284.242 257.019 283.645 257.424 282.962 257.808C282.28 258.149 281.576 258.448 280.85 258.704C280.168 258.96 279.656 259.088 279.314 259.088C278.93 259.088 278.504 258.981 278.034 258.768C277.608 258.555 277.181 258.299 276.754 258C276.37 257.701 276.029 257.424 275.73 257.168C275.432 256.912 275.24 256.741 275.154 256.656C275.026 256.784 274.834 257.04 274.578 257.424C274.322 257.808 274.002 258.235 273.618 258.704C273.277 259.131 272.893 259.515 272.466 259.856C272.082 260.197 271.677 260.368 271.25 260.368C270.141 260.368 269.181 259.771 268.37 258.576C267.56 257.381 266.877 256.016 266.322 254.48C265.81 252.944 265.405 251.472 265.106 250.064C264.85 248.613 264.722 247.632 264.722 247.12C264.722 246.821 264.872 246.587 265.17 246.416C265.512 246.203 265.768 246.096 265.938 246.096C266.536 246.096 266.941 246.309 267.154 246.736C267.368 247.12 267.474 247.547 267.474 248.016C267.474 248.4 267.581 249.083 267.794 250.064C268.05 251.045 268.349 252.048 268.69 253.072C269.032 254.096 269.394 255.013 269.778 255.824C270.162 256.592 270.504 256.976 270.802 256.976C271.357 256.976 271.826 256.635 272.21 255.952C272.637 255.227 272.978 254.416 273.234 253.52C273.49 252.581 273.682 251.707 273.81 250.896C273.938 250.043 274.002 249.488 274.002 249.232C274.002 249.189 274.002 249.061 274.002 248.848C274.045 248.592 274.088 248.336 274.13 248.08C274.173 247.824 274.194 247.589 274.194 247.376C274.237 247.163 274.258 247.013 274.258 246.928C274.258 246.629 274.194 246.437 274.066 246.352C273.938 246.224 273.874 245.989 273.874 245.648C273.874 245.392 274.002 245.157 274.258 244.944C274.514 244.688 275.069 244.56 275.922 244.56C276.264 244.56 276.52 244.667 276.69 244.88C276.904 245.051 277.053 245.264 277.138 245.52C277.224 245.776 277.266 246.032 277.266 246.288C277.309 246.501 277.33 246.651 277.33 246.736C277.33 246.779 277.309 247.077 277.266 247.632C277.224 248.187 277.181 248.805 277.138 249.488C277.138 250.128 277.117 250.747 277.074 251.344C277.032 251.941 277.01 252.304 277.01 252.432C277.01 252.56 277.074 252.816 277.202 253.2C277.33 253.584 277.48 253.989 277.65 254.416C277.864 254.8 278.098 255.163 278.354 255.504C278.61 255.803 278.888 255.952 279.186 255.952C279.698 255.952 280.168 255.888 280.594 255.76C281.064 255.589 281.49 255.419 281.874 255.248C282.301 255.035 282.685 254.864 283.026 254.736C283.368 254.565 283.688 254.48 283.986 254.48C284.37 254.48 284.712 254.565 285.01 254.736C285.352 254.907 285.522 255.12 285.522 255.376ZM303.195 246.48C303.195 246.779 303.067 247.035 302.811 247.248C302.555 247.419 302.257 247.568 301.915 247.696C301.574 247.824 301.233 247.931 300.891 248.016C300.55 248.059 300.273 248.08 300.059 248.08C299.419 248.08 298.993 248.037 298.779 247.952C298.566 247.867 298.395 247.824 298.267 247.824C297.201 247.824 296.347 247.909 295.707 248.08C295.067 248.251 294.555 248.528 294.171 248.912C293.83 249.296 293.595 249.787 293.467 250.384C293.382 250.939 293.339 251.621 293.339 252.432C293.339 253.797 293.382 254.885 293.467 255.696C293.595 256.507 293.702 257.168 293.787 257.68C293.915 258.192 294.022 258.597 294.107 258.896C294.235 259.152 294.299 259.408 294.299 259.664C294.299 260.005 294.107 260.368 293.723 260.752C293.382 261.136 293.062 261.328 292.763 261.328C292.251 261.328 291.782 260.88 291.355 259.984C290.971 259.045 290.63 257.957 290.331 256.72C290.075 255.44 289.862 254.181 289.691 252.944C289.521 251.707 289.435 250.768 289.435 250.128C289.435 249.403 289.499 248.72 289.627 248.08C289.755 247.397 289.926 246.821 290.139 246.352C290.353 245.84 290.587 245.435 290.843 245.136C291.099 244.837 291.355 244.688 291.611 244.688C291.825 244.688 291.995 244.773 292.123 244.944C292.251 245.072 292.358 245.243 292.443 245.456C292.529 245.627 292.614 245.797 292.699 245.968C292.827 246.096 292.977 246.16 293.147 246.16C293.531 246.16 294.15 245.968 295.003 245.584C295.857 245.2 296.902 245.008 298.139 245.008C299.291 245.008 300.145 245.051 300.699 245.136C301.297 245.179 301.873 245.307 302.427 245.52C302.555 245.563 302.705 245.669 302.875 245.84C303.089 245.968 303.195 246.181 303.195 246.48ZM326.133 259.28C326.176 259.365 326.197 259.493 326.197 259.664C326.197 259.92 326.005 260.304 325.621 260.816C325.493 260.987 325.216 261.264 324.789 261.648C324.363 262.032 323.787 262.416 323.061 262.8C322.336 263.184 321.44 263.525 320.373 263.824C319.349 264.123 318.133 264.272 316.725 264.272C315.744 264.272 314.784 264.059 313.845 263.632C312.907 263.163 312.075 262.501 311.349 261.648C310.624 260.752 310.027 259.664 309.557 258.384C309.088 257.061 308.853 255.525 308.853 253.776C308.853 252.112 309.067 250.555 309.493 249.104C309.92 247.653 310.453 246.373 311.093 245.264C311.776 244.155 312.523 243.28 313.333 242.64C314.144 242 314.933 241.68 315.701 241.68C316.384 241.68 317.067 241.829 317.749 242.128C318.475 242.384 319.115 242.725 319.669 243.152C320.267 243.579 320.736 244.069 321.077 244.624C321.419 245.136 321.589 245.669 321.589 246.224C321.589 246.864 321.291 247.525 320.693 248.208C320.139 248.891 319.456 249.531 318.645 250.128C317.835 250.683 317.024 251.152 316.213 251.536C315.403 251.877 314.763 252.048 314.293 252.048C314.037 252.048 313.803 251.941 313.589 251.728C313.419 251.472 313.333 251.173 313.333 250.832C313.333 250.235 313.589 249.765 314.101 249.424C314.656 249.083 315.253 248.784 315.893 248.528C316.533 248.229 317.109 247.888 317.621 247.504C318.176 247.12 318.453 246.587 318.453 245.904C318.453 245.819 318.347 245.605 318.133 245.264C317.92 244.923 317.344 244.752 316.405 244.752C315.979 244.752 315.488 245.008 314.933 245.52C314.379 245.989 313.845 246.651 313.333 247.504C312.821 248.315 312.395 249.296 312.053 250.448C311.712 251.557 311.541 252.773 311.541 254.096C311.541 255.205 311.733 256.208 312.117 257.104C312.544 258 313.077 258.768 313.717 259.408C314.357 260.005 315.104 260.475 315.957 260.816C316.811 261.157 317.685 261.328 318.581 261.328C319.221 261.328 319.904 261.2 320.629 260.944C321.397 260.645 322.101 260.347 322.741 260.048C323.424 259.707 324 259.408 324.469 259.152C324.981 258.853 325.301 258.704 325.429 258.704C325.557 258.704 325.685 258.768 325.813 258.896C325.984 259.024 326.091 259.152 326.133 259.28ZM345.054 257.552C345.054 258.277 344.798 258.917 344.286 259.472C343.816 259.984 343.198 260.432 342.43 260.816C341.704 261.157 340.894 261.435 339.998 261.648C339.102 261.861 338.248 262.032 337.438 262.16C336.627 262.245 335.902 262.309 335.262 262.352C334.664 262.352 334.28 262.352 334.11 262.352C333.171 262.352 332.446 262.203 331.934 261.904C331.422 261.605 331.166 261.072 331.166 260.304C331.166 260.048 331.187 259.835 331.23 259.664C331.272 259.451 331.443 259.344 331.742 259.344C331.87 259.344 332.083 259.387 332.382 259.472C332.68 259.515 332.915 259.536 333.086 259.536C333.256 259.536 333.79 259.515 334.686 259.472C335.624 259.387 336.606 259.259 337.63 259.088C338.696 258.917 339.635 258.683 340.446 258.384C341.299 258.043 341.726 257.616 341.726 257.104C341.726 257.019 341.278 256.763 340.382 256.336C339.528 255.867 338.227 255.099 336.478 254.032C335.112 253.179 334.152 252.325 333.598 251.472C333.043 250.576 332.766 249.381 332.766 247.888C332.766 246.949 332.958 246.181 333.342 245.584C333.768 244.987 334.323 244.517 335.006 244.176C335.731 243.835 336.542 243.6 337.438 243.472C338.376 243.301 339.358 243.216 340.382 243.216C340.467 243.216 340.723 243.259 341.15 243.344C341.619 243.429 342.11 243.579 342.622 243.792C343.134 243.963 343.582 244.197 343.966 244.496C344.392 244.752 344.606 245.051 344.606 245.392C344.606 245.477 344.52 245.605 344.35 245.776C344.222 245.947 343.987 246.267 343.646 246.736C343.518 246.693 343.283 246.629 342.942 246.544C342.643 246.459 342.28 246.373 341.854 246.288C341.47 246.16 341.064 246.075 340.638 246.032C340.211 245.947 339.87 245.904 339.614 245.904C338.504 245.904 337.608 246.117 336.926 246.544C336.243 246.928 335.902 247.696 335.902 248.848C335.902 249.403 336.115 249.915 336.542 250.384C337.011 250.853 337.587 251.301 338.27 251.728C338.952 252.112 339.678 252.517 340.446 252.944C341.256 253.328 342.003 253.755 342.686 254.224C343.368 254.693 343.923 255.205 344.35 255.76C344.819 256.272 345.054 256.869 345.054 257.552ZM412.357 230.864C412.357 231.163 412.229 231.419 411.973 231.632C411.759 231.803 411.546 231.888 411.333 231.888C410.949 231.888 410.33 231.931 409.477 232.016C408.666 232.101 407.77 232.208 406.789 232.336C405.85 232.421 404.911 232.528 403.973 232.656C403.077 232.741 402.351 232.827 401.797 232.912C401.626 232.912 401.263 232.933 400.709 232.976C400.197 233.019 399.599 233.083 398.917 233.168C398.277 233.211 397.615 233.275 396.933 233.36C396.293 233.445 395.781 233.509 395.397 233.552C394.927 233.637 394.245 233.787 393.349 234C392.453 234.213 391.642 234.427 390.917 234.64C390.661 234.725 390.426 234.789 390.213 234.832C389.999 234.875 389.829 234.917 389.701 234.96C389.53 235.003 389.381 235.045 389.253 235.088L392.709 247.312C392.837 247.696 393.05 248.315 393.349 249.168C393.647 250.021 393.989 250.96 394.373 251.984C394.799 253.008 395.226 254.075 395.653 255.184C396.122 256.293 396.527 257.317 396.869 258.256C397.082 258.811 397.317 259.493 397.573 260.304C397.829 261.115 398.063 261.947 398.277 262.8C398.49 263.611 398.661 264.357 398.789 265.04C398.959 265.723 399.045 266.192 399.045 266.448C399.045 267.045 398.874 267.664 398.533 268.304C398.191 268.987 397.743 269.328 397.189 269.328C396.677 269.328 396.421 268.965 396.421 268.24V267.792C396.421 267.664 396.421 267.515 396.421 267.344C396.463 267.173 396.485 266.981 396.485 266.768C396.485 266.427 396.357 265.851 396.101 265.04C395.845 264.187 395.525 263.248 395.141 262.224C394.757 261.157 394.33 260.048 393.861 258.896C393.434 257.701 393.007 256.592 392.581 255.568C392.197 254.501 391.855 253.605 391.557 252.88C391.258 252.112 391.066 251.6 390.981 251.344C390.853 251.003 390.682 250.512 390.469 249.872C390.298 249.232 390.085 248.507 389.829 247.696C389.573 246.885 389.295 246.032 388.997 245.136C388.741 244.197 388.485 243.28 388.229 242.384C387.589 240.293 386.885 238.011 386.117 235.536C385.903 235.579 385.199 235.685 384.005 235.856C382.853 235.984 381.551 236.133 380.101 236.304C378.65 236.475 377.263 236.645 375.941 236.816C374.618 236.944 373.722 237.008 373.253 237.008C372.186 237.008 371.503 236.837 371.205 236.496C370.906 236.155 370.735 235.728 370.693 235.216C370.693 234.875 370.778 234.533 370.949 234.192C371.119 233.808 371.354 233.616 371.653 233.616C371.994 233.616 372.271 233.68 372.485 233.808C372.655 233.893 372.89 233.936 373.189 233.936C373.274 233.936 373.701 233.893 374.469 233.808C375.279 233.723 376.218 233.616 377.285 233.488C378.394 233.36 379.525 233.232 380.677 233.104C381.871 232.976 382.917 232.869 383.813 232.784C384.026 232.784 384.239 232.784 384.453 232.784C384.709 232.741 384.943 232.699 385.157 232.656C385.37 232.613 385.583 232.592 385.797 232.592C385.797 232.464 385.861 232.187 385.989 231.76C386.159 231.291 386.33 231.056 386.501 231.056C386.927 231.056 387.269 231.227 387.525 231.568C387.823 231.867 388.079 232.08 388.293 232.208C388.591 232.165 389.039 232.08 389.637 231.952C390.277 231.781 390.938 231.632 391.621 231.504C392.346 231.376 393.029 231.269 393.669 231.184C394.351 231.056 394.927 230.971 395.397 230.928L402.885 230.48C403.525 230.437 404.25 230.395 405.061 230.352C405.914 230.267 406.746 230.181 407.557 230.096C408.367 230.011 409.071 229.947 409.669 229.904C410.266 229.819 410.671 229.776 410.885 229.776C411.269 229.819 411.61 229.947 411.909 230.16C412.207 230.373 412.357 230.608 412.357 230.864ZM424.821 254.16C425.035 254.373 425.141 254.501 425.141 254.544C425.141 254.629 425.013 254.885 424.757 255.312C424.544 255.739 424.245 256.187 423.861 256.656C423.477 257.125 423.051 257.552 422.581 257.936C422.155 258.277 421.728 258.448 421.301 258.448C420.405 258.448 419.68 258.277 419.125 257.936C418.571 257.552 418.101 257.083 417.717 256.528C417.376 255.973 417.099 255.376 416.885 254.736C416.715 254.053 416.565 253.413 416.437 252.816C416.352 252.517 416.267 252.368 416.181 252.368C416.053 252.368 415.797 252.837 415.413 253.776C415.029 254.672 414.603 255.675 414.133 256.784C413.707 257.851 413.28 258.853 412.853 259.792C412.469 260.688 412.213 261.136 412.085 261.136C411.317 261.136 410.656 260.816 410.101 260.176C409.589 259.493 409.163 258.725 408.821 257.872C408.523 256.976 408.288 256.08 408.117 255.184C407.947 254.245 407.84 253.52 407.797 253.008C407.669 251.856 407.392 249.936 406.965 247.248C406.539 244.56 406.176 241.296 405.877 237.456C405.792 236.645 405.685 235.92 405.557 235.28C405.472 234.597 405.365 233.851 405.237 233.04C405.109 232.229 405.003 231.312 404.917 230.288C404.832 229.264 404.789 228.005 404.789 226.512C404.789 226.427 404.811 226.149 404.853 225.68C404.896 225.211 404.96 224.699 405.045 224.144C405.131 223.589 405.259 223.099 405.429 222.672C405.643 222.245 405.877 222.032 406.133 222.032C406.432 222.032 406.709 222.224 406.965 222.608C407.221 222.949 407.435 223.355 407.605 223.824C407.819 224.293 407.968 224.741 408.053 225.168C408.139 225.595 408.181 225.893 408.181 226.064C408.181 226.704 408.139 227.301 408.053 227.856C407.968 228.411 407.925 228.923 407.925 229.392C407.925 230.032 407.968 230.843 408.053 231.824C408.181 232.805 408.331 233.808 408.501 234.832C408.672 235.856 408.821 236.859 408.949 237.84C409.077 238.779 409.184 239.547 409.269 240.144C409.269 240.187 409.312 240.485 409.397 241.04C409.483 241.595 409.568 242.299 409.653 243.152C409.781 243.963 409.888 244.859 409.973 245.84C410.101 246.779 410.229 247.717 410.357 248.656C410.485 249.552 410.592 250.363 410.677 251.088C410.805 251.771 410.891 252.261 410.933 252.56C410.933 252.688 410.955 252.88 410.997 253.136C411.083 253.349 411.147 253.605 411.189 253.904C411.275 254.203 411.36 254.48 411.445 254.736C411.531 254.992 411.637 255.184 411.765 255.312C412.021 254.8 412.341 254.011 412.725 252.944C413.152 251.877 413.579 250.789 414.005 249.68C414.475 248.571 414.901 247.611 415.285 246.8C415.712 245.947 416.075 245.52 416.373 245.52C416.715 245.52 416.992 245.584 417.205 245.712C417.419 245.84 417.696 245.947 418.037 246.032C418.464 246.203 418.677 246.437 418.677 246.736C418.677 246.992 418.72 247.312 418.805 247.696C418.891 248.208 419.019 248.891 419.189 249.744C419.403 250.555 419.637 251.365 419.893 252.176C420.149 252.944 420.448 253.605 420.789 254.16C421.131 254.715 421.472 254.992 421.813 254.992C421.984 254.992 422.219 254.779 422.517 254.352C422.816 253.883 423.221 253.627 423.733 253.584C423.819 253.584 423.968 253.648 424.181 253.776C424.395 253.861 424.608 253.989 424.821 254.16ZM444.008 246.48C444.008 246.779 443.88 247.035 443.624 247.248C443.368 247.419 443.069 247.568 442.728 247.696C442.386 247.824 442.045 247.931 441.704 248.016C441.362 248.059 441.085 248.08 440.872 248.08C440.232 248.08 439.805 248.037 439.592 247.952C439.378 247.867 439.208 247.824 439.08 247.824C438.013 247.824 437.16 247.909 436.52 248.08C435.88 248.251 435.368 248.528 434.984 248.912C434.642 249.296 434.408 249.787 434.28 250.384C434.194 250.939 434.152 251.621 434.152 252.432C434.152 253.797 434.194 254.885 434.28 255.696C434.408 256.507 434.514 257.168 434.6 257.68C434.728 258.192 434.834 258.597 434.92 258.896C435.048 259.152 435.112 259.408 435.112 259.664C435.112 260.005 434.92 260.368 434.536 260.752C434.194 261.136 433.874 261.328 433.576 261.328C433.064 261.328 432.594 260.88 432.168 259.984C431.784 259.045 431.442 257.957 431.144 256.72C430.888 255.44 430.674 254.181 430.504 252.944C430.333 251.707 430.248 250.768 430.248 250.128C430.248 249.403 430.312 248.72 430.44 248.08C430.568 247.397 430.738 246.821 430.952 246.352C431.165 245.84 431.4 245.435 431.656 245.136C431.912 244.837 432.168 244.688 432.424 244.688C432.637 244.688 432.808 244.773 432.936 244.944C433.064 245.072 433.17 245.243 433.256 245.456C433.341 245.627 433.426 245.797 433.512 245.968C433.64 246.096 433.789 246.16 433.96 246.16C434.344 246.16 434.962 245.968 435.816 245.584C436.669 245.2 437.714 245.008 438.952 245.008C440.104 245.008 440.957 245.051 441.512 245.136C442.109 245.179 442.685 245.307 443.24 245.52C443.368 245.563 443.517 245.669 443.688 245.84C443.901 245.968 444.008 246.181 444.008 246.48ZM460.61 252.176C460.61 253.115 460.482 254.011 460.226 254.864C459.97 255.717 459.628 256.464 459.202 257.104C458.775 257.744 458.263 258.256 457.666 258.64C457.111 258.981 456.492 259.152 455.81 259.152C454.615 259.152 453.676 258.811 452.994 258.128C452.311 257.445 451.778 256.656 451.394 255.76C451.052 254.864 450.818 253.968 450.69 253.072C450.604 252.133 450.562 251.429 450.562 250.96C450.562 250.192 450.668 249.339 450.882 248.4C451.138 247.419 451.458 246.523 451.842 245.712C452.268 244.901 452.738 244.219 453.25 243.664C453.762 243.109 454.295 242.832 454.85 242.832C454.978 242.832 455.17 242.875 455.426 242.96C455.724 243.045 456.023 243.173 456.322 243.344C456.62 243.515 456.876 243.728 457.09 243.984C457.346 244.24 457.516 244.539 457.602 244.88C458.071 244.923 458.54 245.093 459.01 245.392C459.479 245.691 459.735 245.925 459.778 246.096C460.119 247.205 460.332 248.315 460.418 249.424C460.546 250.533 460.61 251.451 460.61 252.176ZM457.73 251.024C457.73 250.384 457.666 249.723 457.538 249.04C457.41 248.315 457.154 247.589 456.77 246.864C456.684 246.907 456.578 246.928 456.45 246.928C456.279 246.928 456.13 246.907 456.002 246.864C455.916 246.821 455.831 246.8 455.746 246.8C455.234 246.8 454.828 246.949 454.53 247.248C454.231 247.504 453.996 247.867 453.826 248.336C453.698 248.763 453.612 249.232 453.57 249.744C453.527 250.256 453.506 250.747 453.506 251.216C453.506 251.685 453.527 252.219 453.57 252.816C453.612 253.371 453.698 253.904 453.826 254.416C453.996 254.928 454.21 255.376 454.466 255.76C454.722 256.101 455.063 256.272 455.49 256.272C455.916 256.272 456.279 256.059 456.578 255.632C456.876 255.163 457.111 254.629 457.282 254.032C457.452 253.435 457.559 252.859 457.602 252.304C457.687 251.707 457.73 251.28 457.73 251.024ZM488.147 255.376C488.147 255.76 487.891 256.165 487.379 256.592C486.867 257.019 486.27 257.424 485.587 257.808C484.905 258.149 484.201 258.448 483.475 258.704C482.793 258.96 482.281 259.088 481.939 259.088C481.555 259.088 481.129 258.981 480.659 258.768C480.233 258.555 479.806 258.299 479.379 258C478.995 257.701 478.654 257.424 478.355 257.168C478.057 256.912 477.865 256.741 477.779 256.656C477.651 256.784 477.459 257.04 477.203 257.424C476.947 257.808 476.627 258.235 476.243 258.704C475.902 259.131 475.518 259.515 475.091 259.856C474.707 260.197 474.302 260.368 473.875 260.368C472.766 260.368 471.806 259.771 470.995 258.576C470.185 257.381 469.502 256.016 468.947 254.48C468.435 252.944 468.03 251.472 467.731 250.064C467.475 248.613 467.347 247.632 467.347 247.12C467.347 246.821 467.497 246.587 467.795 246.416C468.137 246.203 468.393 246.096 468.563 246.096C469.161 246.096 469.566 246.309 469.779 246.736C469.993 247.12 470.099 247.547 470.099 248.016C470.099 248.4 470.206 249.083 470.419 250.064C470.675 251.045 470.974 252.048 471.315 253.072C471.657 254.096 472.019 255.013 472.403 255.824C472.787 256.592 473.129 256.976 473.427 256.976C473.982 256.976 474.451 256.635 474.835 255.952C475.262 255.227 475.603 254.416 475.859 253.52C476.115 252.581 476.307 251.707 476.435 250.896C476.563 250.043 476.627 249.488 476.627 249.232C476.627 249.189 476.627 249.061 476.627 248.848C476.67 248.592 476.713 248.336 476.755 248.08C476.798 247.824 476.819 247.589 476.819 247.376C476.862 247.163 476.883 247.013 476.883 246.928C476.883 246.629 476.819 246.437 476.691 246.352C476.563 246.224 476.499 245.989 476.499 245.648C476.499 245.392 476.627 245.157 476.883 244.944C477.139 244.688 477.694 244.56 478.547 244.56C478.889 244.56 479.145 244.667 479.315 244.88C479.529 245.051 479.678 245.264 479.763 245.52C479.849 245.776 479.891 246.032 479.891 246.288C479.934 246.501 479.955 246.651 479.955 246.736C479.955 246.779 479.934 247.077 479.891 247.632C479.849 248.187 479.806 248.805 479.763 249.488C479.763 250.128 479.742 250.747 479.699 251.344C479.657 251.941 479.635 252.304 479.635 252.432C479.635 252.56 479.699 252.816 479.827 253.2C479.955 253.584 480.105 253.989 480.275 254.416C480.489 254.8 480.723 255.163 480.979 255.504C481.235 255.803 481.513 255.952 481.811 255.952C482.323 255.952 482.793 255.888 483.219 255.76C483.689 255.589 484.115 255.419 484.499 255.248C484.926 255.035 485.31 254.864 485.651 254.736C485.993 254.565 486.313 254.48 486.611 254.48C486.995 254.48 487.337 254.565 487.635 254.736C487.977 254.907 488.147 255.12 488.147 255.376ZM506.588 260.368C506.588 260.837 506.418 261.157 506.076 261.328C505.735 261.499 505.564 261.733 505.564 262.032C505.522 261.989 505.607 262.224 505.82 262.736C506.034 263.248 506.226 263.781 506.396 264.336C506.695 265.488 506.951 266.491 507.164 267.344C507.42 268.197 507.612 268.987 507.74 269.712C507.911 270.437 508.039 271.163 508.124 271.888C508.21 272.613 508.252 273.424 508.252 274.32C508.252 275.216 508.103 276.133 507.804 277.072C507.506 278.011 507.079 278.843 506.524 279.568C505.97 280.293 505.287 280.891 504.476 281.36C503.666 281.829 502.748 282.064 501.724 282.064C500.146 282.064 498.887 281.744 497.948 281.104C497.052 280.464 496.37 279.739 495.9 278.928C495.431 278.117 495.132 277.307 495.004 276.496C494.876 275.728 494.812 275.216 494.812 274.96C494.812 273.381 495.218 271.803 496.028 270.224C496.839 268.645 497.735 267.216 498.716 265.936C499.698 264.656 500.594 263.589 501.404 262.736C502.215 261.883 502.62 261.392 502.62 261.264L501.916 259.152C501.49 259.664 501.106 260.24 500.764 260.88C500.466 261.477 500.124 262.053 499.74 262.608C499.399 263.12 498.972 263.568 498.46 263.952C497.991 264.293 497.394 264.464 496.668 264.464C495.9 264.464 495.132 264.229 494.364 263.76C493.596 263.291 492.914 262.587 492.316 261.648C491.719 260.709 491.228 259.579 490.844 258.256C490.503 256.933 490.332 255.397 490.332 253.648C490.332 252.667 490.482 251.451 490.78 250C491.079 248.507 491.548 247.077 492.188 245.712C492.828 244.347 493.618 243.195 494.556 242.256C495.538 241.275 496.668 240.784 497.948 240.784C498.674 240.784 499.335 240.912 499.932 241.168C500.572 241.424 500.892 241.744 500.892 242.128C500.892 242.469 500.828 242.747 500.7 242.96C500.572 243.173 500.402 243.387 500.188 243.6C500.06 243.515 499.911 243.429 499.74 243.344C499.612 243.259 499.42 243.216 499.164 243.216C498.226 243.216 497.372 243.643 496.604 244.496C495.879 245.307 495.26 246.331 494.748 247.568C494.236 248.763 493.831 250.021 493.532 251.344C493.276 252.667 493.148 253.819 493.148 254.8C493.148 256.976 493.511 258.64 494.236 259.792C494.962 260.901 495.73 261.456 496.54 261.456C496.924 261.456 497.33 261.179 497.756 260.624C498.226 260.027 498.652 259.387 499.036 258.704C499.463 257.979 499.826 257.296 500.124 256.656C500.423 256.016 500.594 255.632 500.636 255.504C500.722 255.077 500.764 254.587 500.764 254.032C500.764 253.563 500.743 253.051 500.7 252.496C500.7 251.899 500.7 251.301 500.7 250.704C500.7 249.595 500.786 248.677 500.956 247.952C501.127 247.184 501.554 246.8 502.236 246.8C502.919 246.8 503.41 247.013 503.708 247.44C504.007 247.824 504.156 248.293 504.156 248.848C504.156 249.232 504.135 249.701 504.092 250.256C504.092 250.768 504.092 251.28 504.092 251.792C504.092 252.261 504.071 252.688 504.028 253.072C504.028 253.413 504.028 253.627 504.028 253.712C504.028 253.968 504.05 254.352 504.092 254.864C504.178 255.333 504.242 255.824 504.284 256.336C504.37 256.805 504.434 257.253 504.476 257.68C504.562 258.064 504.626 258.32 504.668 258.448C504.711 258.576 504.775 258.768 504.86 259.024C504.946 259.28 505.031 259.472 505.116 259.6C505.159 259.515 505.244 259.429 505.372 259.344C505.5 259.216 505.607 259.109 505.692 259.024C505.906 259.152 506.098 259.408 506.268 259.792C506.482 260.133 506.588 260.325 506.588 260.368ZM504.412 268.496C504.242 267.813 504.05 267.131 503.836 266.448C503.623 265.765 503.41 265.061 503.196 264.336C502.471 265.232 501.767 266.085 501.084 266.896C500.444 267.749 499.847 268.581 499.292 269.392C498.78 270.203 498.354 271.035 498.012 271.888C497.714 272.784 497.564 273.723 497.564 274.704C497.564 276.027 497.927 277.115 498.652 277.968C499.42 278.821 500.252 279.248 501.148 279.248C502.13 279.248 503.047 278.885 503.9 278.16C504.796 277.435 505.244 276.389 505.244 275.024C505.244 274.128 505.223 273.381 505.18 272.784C505.138 272.187 505.074 271.653 504.988 271.184C504.946 270.757 504.86 270.331 504.732 269.904C504.647 269.52 504.54 269.051 504.412 268.496ZM532.384 254.16C532.597 254.373 532.704 254.501 532.704 254.544C532.704 254.629 532.576 254.885 532.32 255.312C532.106 255.739 531.808 256.187 531.424 256.656C531.04 257.125 530.613 257.552 530.144 257.936C529.717 258.277 529.29 258.448 528.864 258.448C527.968 258.448 527.242 258.277 526.688 257.936C526.133 257.552 525.664 257.083 525.28 256.528C524.938 255.973 524.661 255.376 524.448 254.736C524.277 254.053 524.128 253.413 524 252.816C523.914 252.517 523.829 252.368 523.744 252.368C523.616 252.368 523.36 252.837 522.976 253.776C522.592 254.672 522.165 255.675 521.696 256.784C521.269 257.851 520.842 258.853 520.416 259.792C520.032 260.688 519.776 261.136 519.648 261.136C518.88 261.136 518.218 260.816 517.664 260.176C517.152 259.493 516.725 258.725 516.384 257.872C516.085 256.976 515.85 256.08 515.68 255.184C515.509 254.245 515.402 253.52 515.36 253.008C515.232 251.856 514.954 249.936 514.528 247.248C514.101 244.56 513.738 241.296 513.44 237.456C513.354 236.645 513.248 235.92 513.12 235.28C513.034 234.597 512.928 233.851 512.8 233.04C512.672 232.229 512.565 231.312 512.48 230.288C512.394 229.264 512.352 228.005 512.352 226.512C512.352 226.427 512.373 226.149 512.416 225.68C512.458 225.211 512.522 224.699 512.608 224.144C512.693 223.589 512.821 223.099 512.992 222.672C513.205 222.245 513.44 222.032 513.696 222.032C513.994 222.032 514.272 222.224 514.528 222.608C514.784 222.949 514.997 223.355 515.168 223.824C515.381 224.293 515.53 224.741 515.616 225.168C515.701 225.595 515.744 225.893 515.744 226.064C515.744 226.704 515.701 227.301 515.616 227.856C515.53 228.411 515.488 228.923 515.488 229.392C515.488 230.032 515.53 230.843 515.616 231.824C515.744 232.805 515.893 233.808 516.064 234.832C516.234 235.856 516.384 236.859 516.512 237.84C516.64 238.779 516.746 239.547 516.832 240.144C516.832 240.187 516.874 240.485 516.96 241.04C517.045 241.595 517.13 242.299 517.216 243.152C517.344 243.963 517.45 244.859 517.536 245.84C517.664 246.779 517.792 247.717 517.92 248.656C518.048 249.552 518.154 250.363 518.24 251.088C518.368 251.771 518.453 252.261 518.496 252.56C518.496 252.688 518.517 252.88 518.56 253.136C518.645 253.349 518.709 253.605 518.752 253.904C518.837 254.203 518.922 254.48 519.008 254.736C519.093 254.992 519.2 255.184 519.328 255.312C519.584 254.8 519.904 254.011 520.288 252.944C520.714 251.877 521.141 250.789 521.568 249.68C522.037 248.571 522.464 247.611 522.848 246.8C523.274 245.947 523.637 245.52 523.936 245.52C524.277 245.52 524.554 245.584 524.768 245.712C524.981 245.84 525.258 245.947 525.6 246.032C526.026 246.203 526.24 246.437 526.24 246.736C526.24 246.992 526.282 247.312 526.368 247.696C526.453 248.208 526.581 248.891 526.752 249.744C526.965 250.555 527.2 251.365 527.456 252.176C527.712 252.944 528.01 253.605 528.352 254.16C528.693 254.715 529.034 254.992 529.376 254.992C529.546 254.992 529.781 254.779 530.08 254.352C530.378 253.883 530.784 253.627 531.296 253.584C531.381 253.584 531.53 253.648 531.744 253.776C531.957 253.861 532.17 253.989 532.384 254.16ZM590.934 251.344C590.934 251.941 590.764 252.56 590.422 253.2C590.124 253.84 589.74 254.48 589.27 255.12C588.801 255.76 588.289 256.379 587.734 256.976C587.18 257.531 586.668 258.021 586.198 258.448C585.046 259.472 583.852 260.453 582.614 261.392C581.42 262.288 580.161 263.099 578.838 263.824C577.558 264.549 576.214 265.125 574.806 265.552C573.398 265.979 571.926 266.192 570.39 266.192C565.74 266.192 563.414 263.803 563.414 259.024C563.414 258.555 563.606 257.637 563.99 256.272C564.374 254.907 564.865 253.349 565.462 251.6C566.06 249.851 566.764 248.016 567.574 246.096C568.385 244.176 569.217 242.427 570.07 240.848C570.924 239.227 571.756 237.904 572.566 236.88C573.42 235.856 574.209 235.344 574.934 235.344C575.404 235.344 575.745 235.493 575.958 235.792C576.214 236.091 576.342 236.411 576.342 236.752C576.3 237.008 576.001 237.563 575.446 238.416C574.892 239.227 574.316 240.059 573.718 240.912C573.633 241.04 573.484 241.253 573.27 241.552C573.057 241.851 572.844 242.149 572.63 242.448C572.374 242.789 572.118 243.152 571.862 243.536C571.692 243.835 571.308 244.603 570.71 245.84C570.156 247.035 569.558 248.443 568.918 250.064C568.278 251.643 567.702 253.307 567.19 255.056C566.678 256.763 566.422 258.256 566.422 259.536C566.422 260.261 566.572 260.837 566.87 261.264C567.212 261.691 567.596 262.011 568.022 262.224C568.492 262.437 568.961 262.587 569.43 262.672C569.942 262.715 570.39 262.736 570.774 262.736C572.353 262.736 574.017 262.395 575.766 261.712C577.558 260.987 579.265 260.048 580.886 258.896C582.508 257.744 584.001 256.421 585.366 254.928C586.732 253.392 587.798 251.813 588.566 250.192C588.737 249.893 588.908 249.701 589.078 249.616C589.292 249.531 589.484 249.488 589.654 249.488C589.996 249.488 590.294 249.723 590.55 250.192C590.806 250.661 590.934 251.045 590.934 251.344ZM607.86 252.176C607.86 253.115 607.732 254.011 607.476 254.864C607.22 255.717 606.878 256.464 606.452 257.104C606.025 257.744 605.513 258.256 604.916 258.64C604.361 258.981 603.742 259.152 603.06 259.152C601.865 259.152 600.926 258.811 600.244 258.128C599.561 257.445 599.028 256.656 598.644 255.76C598.302 254.864 598.068 253.968 597.94 253.072C597.854 252.133 597.812 251.429 597.812 250.96C597.812 250.192 597.918 249.339 598.132 248.4C598.388 247.419 598.708 246.523 599.092 245.712C599.518 244.901 599.988 244.219 600.5 243.664C601.012 243.109 601.545 242.832 602.1 242.832C602.228 242.832 602.42 242.875 602.676 242.96C602.974 243.045 603.273 243.173 603.572 243.344C603.87 243.515 604.126 243.728 604.34 243.984C604.596 244.24 604.766 244.539 604.852 244.88C605.321 244.923 605.79 245.093 606.26 245.392C606.729 245.691 606.985 245.925 607.028 246.096C607.369 247.205 607.582 248.315 607.668 249.424C607.796 250.533 607.86 251.451 607.86 252.176ZM604.98 251.024C604.98 250.384 604.916 249.723 604.788 249.04C604.66 248.315 604.404 247.589 604.02 246.864C603.934 246.907 603.828 246.928 603.7 246.928C603.529 246.928 603.38 246.907 603.252 246.864C603.166 246.821 603.081 246.8 602.996 246.8C602.484 246.8 602.078 246.949 601.78 247.248C601.481 247.504 601.246 247.867 601.076 248.336C600.948 248.763 600.862 249.232 600.82 249.744C600.777 250.256 600.756 250.747 600.756 251.216C600.756 251.685 600.777 252.219 600.82 252.816C600.862 253.371 600.948 253.904 601.076 254.416C601.246 254.928 601.46 255.376 601.716 255.76C601.972 256.101 602.313 256.272 602.74 256.272C603.166 256.272 603.529 256.059 603.828 255.632C604.126 255.163 604.361 254.629 604.532 254.032C604.702 253.435 604.809 252.859 604.852 252.304C604.937 251.707 604.98 251.28 604.98 251.024ZM632.453 255.696C632.453 255.909 632.347 256.123 632.133 256.336C631.963 256.507 631.856 256.699 631.813 256.912C631.813 257.381 631.899 257.829 632.069 258.256C632.283 258.683 632.389 259.195 632.389 259.792C632.389 260.347 632.219 260.624 631.877 260.624C631.451 260.624 631.131 260.688 630.917 260.816C630.747 260.901 630.427 260.987 629.957 261.072C629.701 261.072 629.424 260.837 629.125 260.368C628.955 260.155 628.805 259.899 628.677 259.6C628.677 259.557 628.549 259.643 628.293 259.856C628.08 260.069 627.696 260.325 627.141 260.624C626.629 260.88 625.904 261.136 624.965 261.392C624.069 261.605 622.917 261.712 621.509 261.712C620.315 261.712 619.269 261.456 618.373 260.944C617.477 260.389 616.731 259.685 616.133 258.832C615.579 257.979 615.152 257.019 614.853 255.952C614.597 254.843 614.469 253.733 614.469 252.624C614.469 251.6 614.576 250.64 614.789 249.744C615.045 248.805 615.387 247.995 615.813 247.312C616.24 246.587 616.773 246.011 617.413 245.584C618.053 245.157 618.8 244.944 619.653 244.944C620.464 244.944 621.275 245.2 622.085 245.712C622.896 246.224 623.621 246.779 624.261 247.376C624.901 247.973 625.413 248.528 625.797 249.04C626.224 249.509 626.437 249.744 626.437 249.744C625.84 246.416 625.307 243.408 624.837 240.72C624.624 239.568 624.411 238.437 624.197 237.328C624.027 236.176 623.856 235.152 623.685 234.256C623.515 233.36 623.365 232.613 623.237 232.016C623.152 231.376 623.109 230.992 623.109 230.864C623.067 230.608 623.024 230.16 622.981 229.52C622.939 228.837 622.896 228.133 622.853 227.408C622.811 226.683 622.768 226.021 622.725 225.424C622.683 224.827 622.64 224.443 622.597 224.272C622.469 223.845 622.299 223.312 622.085 222.672C621.915 222.032 621.829 221.669 621.829 221.584C621.829 221.371 621.936 221.115 622.149 220.816C622.363 220.475 622.64 220.304 622.981 220.304C623.237 220.304 623.472 220.325 623.685 220.368C623.899 220.411 624.091 220.539 624.261 220.752C624.432 220.965 624.581 221.307 624.709 221.776C624.88 222.203 625.029 222.821 625.157 223.632C625.2 224.059 625.328 224.869 625.541 226.064C625.755 227.259 625.968 228.56 626.181 229.968C626.395 231.376 626.608 232.72 626.821 234C627.035 235.28 627.184 236.219 627.269 236.816C627.483 238.437 627.76 240.208 628.101 242.128C628.485 244.005 628.869 245.819 629.253 247.568C629.637 249.317 630.021 250.875 630.405 252.24C630.789 253.563 631.131 254.459 631.429 254.928C631.515 255.099 631.685 255.227 631.941 255.312C632.197 255.355 632.368 255.483 632.453 255.696ZM627.717 256.976C627.675 256.848 627.397 256.315 626.885 255.376C626.416 254.395 625.797 253.349 625.029 252.24C624.304 251.088 623.472 250.064 622.533 249.168C621.637 248.272 620.763 247.824 619.909 247.824C619.184 247.824 618.587 248.379 618.117 249.488C617.691 250.597 617.477 251.877 617.477 253.328C617.477 254.949 617.947 256.251 618.885 257.232C619.867 258.213 620.955 258.704 622.149 258.704C623.173 258.704 624.24 258.533 625.349 258.192C626.459 257.851 627.248 257.445 627.717 256.976ZM641.18 236.56C641.18 236.645 641.03 236.816 640.732 237.072C640.433 237.328 640.07 237.605 639.644 237.904C639.26 238.16 638.854 238.395 638.428 238.608C638.001 238.821 637.66 238.928 637.404 238.928C637.233 238.928 636.998 238.928 636.7 238.928C636.444 238.885 636.166 238.8 635.868 238.672C635.612 238.544 635.377 238.373 635.164 238.16C634.95 237.904 634.844 237.584 634.844 237.2C634.844 236.603 635.057 236.048 635.484 235.536C635.91 234.981 636.465 234.704 637.148 234.704C637.276 234.704 637.553 234.768 637.98 234.896C638.449 234.981 638.918 235.109 639.388 235.28C639.857 235.451 640.262 235.643 640.604 235.856C640.988 236.069 641.18 236.304 641.18 236.56ZM643.292 260.496C643.292 260.795 643.057 261.051 642.588 261.264C642.161 261.477 641.841 261.584 641.628 261.584C641.201 261.584 640.817 261.307 640.476 260.752C640.134 260.197 639.836 259.557 639.58 258.832C639.324 258.107 639.11 257.424 638.94 256.784C638.769 256.101 638.641 255.632 638.556 255.376C638.428 254.949 638.257 254.437 638.044 253.84C637.83 253.243 637.617 252.667 637.404 252.112C637.233 251.557 637.084 251.067 636.956 250.64C636.828 250.213 636.764 249.979 636.764 249.936C636.764 249.339 636.87 248.784 637.084 248.272C637.34 247.76 637.638 247.504 637.98 247.504C638.364 247.504 638.769 247.803 639.196 248.4C639.622 248.997 640.028 249.765 640.412 250.704C640.838 251.6 641.222 252.603 641.564 253.712C641.905 254.779 642.204 255.803 642.46 256.784C642.716 257.723 642.908 258.555 643.036 259.28C643.206 259.963 643.292 260.368 643.292 260.496ZM666.541 258.128C666.541 258.384 666.456 258.64 666.285 258.896C666.115 259.152 665.901 259.387 665.645 259.6C665.432 259.813 665.176 260.005 664.877 260.176C664.621 260.304 664.387 260.368 664.173 260.368C663.448 260.368 662.509 260.219 661.357 259.92C660.248 259.579 659.352 259.067 658.669 258.384C657.944 257.659 657.304 256.805 656.749 255.824C656.195 254.8 655.576 253.307 654.893 251.344C654.424 253.221 653.869 255.077 653.229 256.912C652.632 258.747 651.651 260.432 650.285 261.968C650.2 262.053 650.072 262.096 649.901 262.096C649.603 262.096 649.283 261.947 648.941 261.648C648.6 261.349 648.429 261.051 648.429 260.752C648.429 260.453 648.387 259.771 648.301 258.704C648.259 257.595 648.195 256.379 648.109 255.056C648.024 253.691 647.939 252.325 647.853 250.96C647.811 249.552 647.789 248.4 647.789 247.504C647.789 247.077 647.811 246.523 647.853 245.84C647.896 245.115 648.024 244.496 648.237 243.984C648.28 243.899 648.429 243.728 648.685 243.472C648.984 243.216 649.304 243.088 649.645 243.088C649.944 243.088 650.115 243.28 650.157 243.664C650.2 244.048 650.221 244.475 650.221 244.944V255.056C650.221 255.269 650.243 255.568 650.285 255.952C650.371 256.336 650.477 256.613 650.605 256.784C651.075 255.76 651.501 254.565 651.885 253.2C652.312 251.792 652.717 250.469 653.101 249.232C653.485 247.952 653.869 246.885 654.253 246.032C654.637 245.136 655.021 244.688 655.405 244.688C655.832 244.688 656.173 244.773 656.429 244.944C656.685 245.115 656.899 245.456 657.069 245.968C657.283 247.205 657.453 248.315 657.581 249.296C657.709 250.235 657.859 251.088 658.029 251.856C658.243 252.624 658.52 253.349 658.861 254.032C659.245 254.672 659.757 255.269 660.397 255.824C660.995 256.379 661.656 256.784 662.381 257.04C663.149 257.296 663.811 257.424 664.365 257.424C664.621 257.424 664.899 257.381 665.197 257.296C665.496 257.168 665.709 257.104 665.837 257.104C666.008 257.104 666.157 257.253 666.285 257.552C666.456 257.851 666.541 258.043 666.541 258.128ZM685.713 260.368C685.713 260.837 685.543 261.157 685.201 261.328C684.86 261.499 684.689 261.733 684.689 262.032C684.647 261.989 684.732 262.224 684.945 262.736C685.159 263.248 685.351 263.781 685.521 264.336C685.82 265.488 686.076 266.491 686.289 267.344C686.545 268.197 686.737 268.987 686.865 269.712C687.036 270.437 687.164 271.163 687.249 271.888C687.335 272.613 687.377 273.424 687.377 274.32C687.377 275.216 687.228 276.133 686.929 277.072C686.631 278.011 686.204 278.843 685.649 279.568C685.095 280.293 684.412 280.891 683.601 281.36C682.791 281.829 681.873 282.064 680.849 282.064C679.271 282.064 678.012 281.744 677.073 281.104C676.177 280.464 675.495 279.739 675.025 278.928C674.556 278.117 674.257 277.307 674.129 276.496C674.001 275.728 673.937 275.216 673.937 274.96C673.937 273.381 674.343 271.803 675.153 270.224C675.964 268.645 676.86 267.216 677.841 265.936C678.823 264.656 679.719 263.589 680.529 262.736C681.34 261.883 681.745 261.392 681.745 261.264L681.041 259.152C680.615 259.664 680.231 260.24 679.889 260.88C679.591 261.477 679.249 262.053 678.865 262.608C678.524 263.12 678.097 263.568 677.585 263.952C677.116 264.293 676.519 264.464 675.793 264.464C675.025 264.464 674.257 264.229 673.489 263.76C672.721 263.291 672.039 262.587 671.441 261.648C670.844 260.709 670.353 259.579 669.969 258.256C669.628 256.933 669.457 255.397 669.457 253.648C669.457 252.667 669.607 251.451 669.905 250C670.204 248.507 670.673 247.077 671.313 245.712C671.953 244.347 672.743 243.195 673.681 242.256C674.663 241.275 675.793 240.784 677.073 240.784C677.799 240.784 678.46 240.912 679.057 241.168C679.697 241.424 680.017 241.744 680.017 242.128C680.017 242.469 679.953 242.747 679.825 242.96C679.697 243.173 679.527 243.387 679.313 243.6C679.185 243.515 679.036 243.429 678.865 243.344C678.737 243.259 678.545 243.216 678.289 243.216C677.351 243.216 676.497 243.643 675.729 244.496C675.004 245.307 674.385 246.331 673.873 247.568C673.361 248.763 672.956 250.021 672.657 251.344C672.401 252.667 672.273 253.819 672.273 254.8C672.273 256.976 672.636 258.64 673.361 259.792C674.087 260.901 674.855 261.456 675.665 261.456C676.049 261.456 676.455 261.179 676.881 260.624C677.351 260.027 677.777 259.387 678.161 258.704C678.588 257.979 678.951 257.296 679.249 256.656C679.548 256.016 679.719 255.632 679.761 255.504C679.847 255.077 679.889 254.587 679.889 254.032C679.889 253.563 679.868 253.051 679.825 252.496C679.825 251.899 679.825 251.301 679.825 250.704C679.825 249.595 679.911 248.677 680.081 247.952C680.252 247.184 680.679 246.8 681.361 246.8C682.044 246.8 682.535 247.013 682.833 247.44C683.132 247.824 683.281 248.293 683.281 248.848C683.281 249.232 683.26 249.701 683.217 250.256C683.217 250.768 683.217 251.28 683.217 251.792C683.217 252.261 683.196 252.688 683.153 253.072C683.153 253.413 683.153 253.627 683.153 253.712C683.153 253.968 683.175 254.352 683.217 254.864C683.303 255.333 683.367 255.824 683.409 256.336C683.495 256.805 683.559 257.253 683.601 257.68C683.687 258.064 683.751 258.32 683.793 258.448C683.836 258.576 683.9 258.768 683.985 259.024C684.071 259.28 684.156 259.472 684.241 259.6C684.284 259.515 684.369 259.429 684.497 259.344C684.625 259.216 684.732 259.109 684.817 259.024C685.031 259.152 685.223 259.408 685.393 259.792C685.607 260.133 685.713 260.325 685.713 260.368ZM683.537 268.496C683.367 267.813 683.175 267.131 682.961 266.448C682.748 265.765 682.535 265.061 682.321 264.336C681.596 265.232 680.892 266.085 680.209 266.896C679.569 267.749 678.972 268.581 678.417 269.392C677.905 270.203 677.479 271.035 677.137 271.888C676.839 272.784 676.689 273.723 676.689 274.704C676.689 276.027 677.052 277.115 677.777 277.968C678.545 278.821 679.377 279.248 680.273 279.248C681.255 279.248 682.172 278.885 683.025 278.16C683.921 277.435 684.369 276.389 684.369 275.024C684.369 274.128 684.348 273.381 684.305 272.784C684.263 272.187 684.199 271.653 684.113 271.184C684.071 270.757 683.985 270.331 683.857 269.904C683.772 269.52 683.665 269.051 683.537 268.496Z" fill="black"/>
<defs>
<linearGradient id="paint0_linear" x1="1008.57" y1="90.9595" x2="967.472" y2="251.798" gradientUnits="userSpaceOnUse">
<stop stop-color="#2EB9F4"/>
<stop offset="1" stop-color="#73E87F" stop-opacity="0.95"/>
</linearGradient>
</defs>
</svg>
