<svg
 width="1368"
 height="475"
 viewBox="0 0 1368 475"
 fill="none"
 style="background: white"
 xmlns="http://www.w3.org/2000/svg"
>
 <g id="JF">
  <g id="Dev">
   <path
    id="Vector"
    d="M1229.84 269.278V400.354L1251.76 436.085L1253.43 438.803H1339.94L1341.69 269.278H1229.84Z"
    fill="#E6E6E6"
   />
   <path
    id="Vector_2"
    opacity="0.1"
    d="M1229.84 269.278V400.354L1251.76 436.085L1253.11 269.278H1229.84Z"
    fill="black"
   />
   <path
    id="Vector_3"
    d="M1020.99 265.782V396.859L999.063 432.59L997.394 435.307H910.884L909.136 265.782H1020.99Z"
    fill="#E6E6E6"
   />
   <path
    id="Vector_4"
    opacity="0.1"
    d="M1020.99 265.782V396.859L999.063 432.59L997.718 265.782H1020.99Z"
    fill="black"
   />
   <path
    id="Vector_5"
    d="M1367.9 263.161V271.025H897.776V259.665L941.468 236.945H1329.46L1367.9 263.161Z"
    fill="#E6E6E6"
   />
   <path
    id="Vector_6"
    opacity="0.1"
    d="M1367.9 263.161V271.025H897.776V259.665L1367.9 263.161Z"
    fill="black"
   />
   <path
    id="Vector_7"
    d="M965.062 302.483H944.09L935.351 296.367H974.674L965.062 302.483Z"
    fill="#3F3D56"
   />
   <path
    id="Vector_8"
    d="M965.062 327.825H944.09L935.351 321.708H974.674L965.062 327.825Z"
    fill="#3F3D56"
   />
   <path
    id="Vector_9"
    d="M965.062 363.653H944.09L935.351 357.535H974.674L965.062 363.653Z"
    fill="#3F3D56"
   />
   <path
    id="Vector_10"
    d="M965.062 399.48H944.09L935.351 393.363H974.674L965.062 399.48Z"
    fill="#3F3D56"
   />
   <path
    id="Vector_11"
    d="M1285.76 305.979H1306.74L1315.47 299.862H1276.15L1285.76 305.979Z"
    fill="#3F3D56"
   />
   <path
    id="Vector_12"
    d="M1285.76 331.32H1306.74L1315.47 325.203H1276.15L1285.76 331.32Z"
    fill="#3F3D56"
   />
   <path
    id="Vector_13"
    d="M1285.76 367.148H1306.74L1315.47 361.031H1276.15L1285.76 367.148Z"
    fill="#3F3D56"
   />
   <path
    id="Vector_14"
    d="M1285.76 402.976H1306.74L1315.47 396.859H1276.15L1285.76 402.976Z"
    fill="#3F3D56"
   />
   <path
    id="Vector_15"
    d="M1300.04 85.3682H1123.49C1122.61 85.3681 1121.74 85.5407 1120.93 85.8762C1120.12 86.2117 1119.39 86.7036 1118.77 87.3236C1118.15 87.9437 1117.65 88.6798 1117.32 89.49C1116.98 90.3001 1116.81 91.1685 1116.81 92.0454V210.979C1116.81 211.856 1116.98 212.724 1117.32 213.534C1117.65 214.345 1118.15 215.081 1118.77 215.701C1119.39 216.321 1120.12 216.813 1120.93 217.148C1121.74 217.484 1122.61 217.656 1123.49 217.656H1190.51L1188 233.688C1188 233.688 1173.65 241.311 1183.74 241.535C1193.83 241.76 1241.36 241.535 1241.36 241.535C1241.36 241.535 1250.56 241.535 1235.98 233.464L1233.62 217.656H1300.04C1300.92 217.656 1301.79 217.484 1302.6 217.148C1303.41 216.813 1304.15 216.321 1304.77 215.701C1305.39 215.081 1305.88 214.345 1306.21 213.534C1306.55 212.724 1306.72 211.856 1306.72 210.979V92.0454C1306.72 91.1685 1306.55 90.3001 1306.21 89.49C1305.88 88.6798 1305.39 87.9437 1304.77 87.3236C1304.15 86.7036 1303.41 86.2117 1302.6 85.8762C1301.79 85.5407 1300.92 85.3681 1300.04 85.3682Z"
    fill="#202B46"
   />
   <path
    id="Vector_16"
    d="M1300.33 92.431H1123.2V191.535H1300.33V92.431Z"
    fill="black"
   />
   <path
    id="Vector_17"
    d="M1211.77 90.4131C1212.39 90.4131 1212.89 89.9111 1212.89 89.292C1212.89 88.6728 1212.39 88.1709 1211.77 88.1709C1211.15 88.1709 1210.64 88.6728 1210.64 89.292C1210.64 89.9111 1211.15 90.4131 1211.77 90.4131Z"
    fill="#F2F2F2"
   />
   <path
    id="Vector_18"
    d="M1211.77 212.836C1214.12 212.836 1216.03 210.928 1216.03 208.576C1216.03 206.223 1214.12 204.315 1211.77 204.315C1209.41 204.315 1207.51 206.223 1207.51 208.576C1207.51 210.928 1209.41 212.836 1211.77 212.836Z"
    fill="#F2F2F2"
   />
   <path
    id="Vector_19"
    d="M1205.13 253.643V255.886H1084.5V254.092L1084.66 253.643L1087.64 245.571H1202.66L1205.13 253.643Z"
    fill="#27234D"
   />
   <path
    id="Vector_20"
    d="M1251.55 251.448C1251.33 252.388 1250.5 253.379 1248.63 254.316C1241.9 257.679 1228.22 253.419 1228.22 253.419C1228.22 253.419 1217.68 251.625 1217.68 246.917C1217.98 246.714 1218.29 246.531 1218.61 246.367C1221.44 244.871 1230.81 241.179 1247.44 246.524C1248.66 246.908 1249.76 247.625 1250.6 248.595C1250.97 248.961 1251.25 249.411 1251.42 249.907C1251.58 250.403 1251.63 250.931 1251.55 251.448Z"
    fill="#3F3D56"
   />
   <path
    id="Vector_21"
    opacity="0.1"
    d="M1251.55 251.448C1243.32 254.603 1235.98 254.838 1228.45 249.607C1225.6 247.502 1222.15 246.366 1218.61 246.367C1221.44 244.871 1230.81 241.179 1247.44 246.524C1248.66 246.908 1249.76 247.625 1250.6 248.595C1250.97 248.961 1251.25 249.411 1251.42 249.907C1251.58 250.403 1251.63 250.931 1251.55 251.448Z"
    fill="black"
   />
   <path
    id="Vector_22"
    opacity="0.1"
    d="M1204.98 253.677V255.92H1084.36V254.126L1084.52 253.677H1204.98Z"
    fill="black"
   />
   <path
    id="Vector_23"
    d="M922.198 53.0935C922.198 53.0935 924.645 73.4841 915.673 75.1154C906.701 76.7466 923.829 104.478 923.829 104.478L964.61 109.372L954.823 76.7466C954.823 76.7466 948.298 74.2997 952.376 57.9872C956.454 41.6747 922.198 53.0935 922.198 53.0935Z"
    fill="#FFB8B8"
   />
   <path
    id="Vector_24"
    d="M897.321 403.404L900.584 448.264H917.711L912.818 403.404H897.321Z"
    fill="#FFB8B8"
   />
   <path
    id="Vector_25"
    d="M1022.93 318.579L1025.37 356.098L1044.13 347.942L1036.79 316.948L1022.93 318.579Z"
    fill="#FFB8B8"
   />
   <path
    id="Vector_26"
    d="M885.087 232.123C885.087 232.123 885.902 279.429 890.796 294.926C895.69 310.423 894.874 311.239 894.059 313.686C893.243 316.132 892.427 314.501 892.427 318.579C892.427 322.657 890.796 387.092 892.427 392.801C894.059 398.511 887.534 408.298 892.427 409.114C897.321 409.929 920.159 409.114 920.974 404.22C921.79 399.326 914.449 397.695 917.712 394.432C920.974 391.17 925.868 324.289 925.868 324.289L937.287 277.798L958.493 253.329H1003.35L1017.22 307.161C1017.22 307.161 1011.51 322.657 1015.59 322.657C1019.66 322.657 1044.13 327.551 1044.13 309.607C1044.13 291.664 1035.98 238.648 1034.35 237.017C1032.71 235.386 1035.16 229.676 1032.71 227.229C1030.27 224.782 1001.72 207.654 991.118 204.392C980.515 201.129 965.641 197.246 965.641 197.246L885.087 232.123Z"
    fill="#2F2E41"
   />
   <path
    id="Vector_27"
    d="M940.549 66.5513C954.063 66.5513 965.018 55.5963 965.018 42.0825C965.018 28.5688 954.063 17.6138 940.549 17.6138C927.036 17.6138 916.081 28.5688 916.081 42.0825C916.081 55.5963 927.036 66.5513 940.549 66.5513Z"
    fill="#FFB8B8"
   />
   <path
    id="Vector_28"
    d="M908.74 85.3106C908.74 85.3106 948.706 93.4669 958.493 80.4169C968.281 67.3669 972.359 117.12 972.359 117.12L977.252 169.32L969.912 197.867C969.912 197.867 931.577 228.861 919.343 231.307C907.109 233.754 888.349 235.386 888.349 235.386C888.349 235.386 894.059 144.851 894.059 143.22C894.059 141.589 908.74 85.3106 908.74 85.3106Z"
    fill="url(#paint0_linear)"
   />
   <path
    id="Vector_29"
    d="M920.894 70.0139C920.894 70.0139 912.002 64.92 909.556 69.8138C907.109 74.7075 884.271 86.9419 881.824 86.9419C879.377 86.9419 886.718 154.639 883.456 162.795C880.193 170.951 864.696 230.492 873.668 235.386C882.64 240.279 876.115 230.492 885.087 242.726C894.059 254.961 938.102 254.961 940.549 250.067C942.996 245.173 920.974 208.47 925.052 174.214C929.131 139.958 935.656 92.6513 929.946 86.1263C924.237 79.6013 920.894 70.0139 920.894 70.0139Z"
    fill="#2F2E41"
   />
   <path
    id="Vector_30"
    d="M950.337 75.5231L951.473 71.6134C951.473 71.6134 985.409 82.8638 987.04 90.2044C988.671 97.545 987.856 148.929 982.146 153.008C976.437 157.086 968.281 163.611 973.99 173.398C979.699 183.186 986.224 193.789 991.118 194.604C996.012 195.42 1004.98 201.129 1002.54 206.839C1000.09 212.548 970.727 201.945 970.727 201.945C970.727 201.945 951.152 187.264 951.968 164.426C952.784 141.589 950.337 75.5231 950.337 75.5231Z"
    fill="#2F2E41"
   />
   <path
    id="Vector_31"
    d="M978.884 171.767L959.309 208.47C959.309 208.47 930.762 237.832 947.074 241.095C963.387 244.357 972.359 214.179 972.359 214.179L993.565 184.001L978.884 171.767Z"
    fill="#FFB8B8"
   />
   <path
    id="Vector_32"
    d="M932.263 6.42253C931.277 6.34945 930.289 6.54106 929.402 6.97756C928.599 7.56357 927.938 8.32144 927.466 9.19579C925.291 12.4682 922.455 15.2495 919.141 17.361C916.667 18.9345 913.522 20.8964 913.945 23.7975C914.175 24.7702 914.584 25.6916 915.151 26.5145C917.441 30.5548 918.353 35.231 917.748 39.8355L924.55 29.9486C925.63 28.3791 927.505 26.6075 929.136 27.5931C929.682 27.9231 930.04 28.5151 930.608 28.8046C931.964 29.4956 933.407 28.1746 934.608 27.239C938.747 24.0126 944.634 24.8578 949.785 25.8631C952.217 26.3377 954.888 26.9603 956.325 28.9784C958.714 32.332 956.22 37.1776 957.614 41.0519C958.004 40.7786 958.336 40.4298 958.589 40.026C958.842 39.6223 959.011 39.1719 959.087 38.7015C961.032 38.7616 963.414 38.5704 964.247 36.8123C964.501 36.1233 964.636 35.3964 964.647 34.6623C964.953 31.7091 966.396 29.0148 967.353 26.204C968.309 23.3932 968.725 20.0991 967.111 17.607C966.521 16.7626 965.808 16.0106 964.997 15.3757C955.838 7.68019 943.796 6.41111 932.263 6.42253Z"
    fill="#2F2E41"
   />
   <path
    id="Vector_33"
    d="M978.884 86.9419L986.483 88.959C986.483 88.959 1004.17 134.248 1000.09 165.242C996.012 196.236 993.565 189.711 993.565 189.711C993.565 189.711 987.04 175.029 972.359 178.292L978.884 86.9419Z"
    fill="#2F2E41"
   />
   <path
    id="Vector_34"
    d="M898.451 442.335C896.484 445.008 896.879 448.829 895.136 451.653C893.626 454.101 890.78 455.385 888.891 457.554C888.288 458.275 887.751 459.048 887.285 459.864C885.533 462.799 884.109 466.561 885.835 469.512C887.223 471.885 890.141 472.813 892.817 473.445C896.2 474.245 899.714 474.884 903.136 474.273C906.558 473.663 909.902 471.568 911.122 468.313C911.362 467.495 911.647 466.69 911.976 465.903C913.83 462.252 919.647 462.213 921.545 458.584C922.874 456.045 921.653 452.975 920.432 450.382L916.704 442.463C915.467 439.835 910.453 441.346 907.838 440.716C904.429 439.895 900.904 438.99 898.451 442.335Z"
    fill="#2F2E41"
   />
   <path
    id="Vector_35"
    d="M871.221 188.079L905.477 241.095C905.477 241.095 926.684 268.011 933.209 255.776C939.734 243.542 910.371 223.151 910.371 223.151L888.349 182.37L871.221 188.079Z"
    fill="#FFB8B8"
   />
   <path
    id="Vector_36"
    d="M888.349 88.5731L881.824 86.9419C881.824 86.9419 868.774 91.02 865.512 108.148C862.249 125.276 864.696 193.789 868.774 194.604C872.852 195.42 888.916 182.675 891.487 185.377C894.059 188.079 885.902 174.214 888.349 166.873C890.796 159.532 888.349 88.5731 888.349 88.5731Z"
    fill="#2F2E41"
   />
  </g>
  <g class="Shoe" id="Shoe">
   <path
    id="Vector_37"
    d="M1044.13 341.417C1044.13 341.417 1031.9 337.339 1026.19 349.573C1020.48 361.807 1022.93 365.07 1022.93 365.07C1022.93 365.07 1041.69 371.595 1044.95 368.332C1046.37 366.913 1050.88 366.42 1055.52 366.316C1062.58 366.157 1064.46 356.16 1057.79 353.832C1057.59 353.763 1057.39 353.702 1057.18 353.651C1050.66 352.02 1044.13 341.417 1044.13 341.417Z"
    fill="#2F2E41"
   />
  </g>
  <g class="Mouse" id="Mouse">
   <path
    id="Vector_38"
    d="M1241.23 249.607C1242.84 249.607 1244.14 249.206 1244.14 248.71C1244.14 248.215 1242.84 247.814 1241.23 247.814C1239.62 247.814 1238.31 248.215 1238.31 248.71C1238.31 249.206 1239.62 249.607 1241.23 249.607Z"
   />
  </g>
  <g class="Hair" id="Hair">
   <path
    id="Vector_39"
    d="M931.071 0.0203297C929.847 -0.0801865 928.621 0.193667 927.556 0.805603C926.51 1.52179 925.851 2.77649 925.178 3.94405C922.606 8.46142 919.123 12.3953 914.951 15.4965C911.912 17.7228 908.049 20.4986 908.569 24.6032C908.843 25.9587 909.344 27.2583 910.05 28.4473C912.853 34.1064 920.503 38.4797 919.751 44.9372C922.536 40.2744 918.811 37.9687 921.596 33.3059C922.922 31.0854 925.227 28.5788 927.229 29.9733C927.9 30.4402 928.34 31.2777 929.038 31.6874C930.704 32.665 932.476 30.796 933.951 29.4723C939.036 24.9074 946.268 26.1033 952.595 27.5256C955.583 28.1971 958.864 29.078 960.63 31.9332C962.952 35.6872 958.424 39.7416 957.28 43.9858C957.187 44.3475 957.182 44.7263 957.267 45.0901C957.352 45.4538 957.524 45.7915 957.768 46.0744C958.012 46.3573 958.321 46.5768 958.668 46.7143C959.015 46.8518 959.391 46.9032 959.762 46.864C961.661 46.6767 963.91 46.5232 964.022 45.69C966.411 45.775 969.338 45.5045 970.362 43.017C970.675 42.0328 970.84 41.0078 970.852 39.9751C971.228 35.7967 973.002 31.9848 974.176 28.0079C975.351 24.0311 975.862 19.3705 973.879 15.8446C973.172 14.6715 972.297 13.608 971.282 12.6877C960.031 1.79973 945.239 0.0041679 931.071 0.0203297Z"
    fill="#2F2E41"
   />
  </g>
  <g class="Code" id="Code">
   <g id="Codes">
    <path d="M1195 124.98H1173.92V130.055H1195V124.98Z"/>
    <path d="M1268 124.98H1260.58V130.055H1268V124.98Z"/>
    <path d="M1282.84 124.98H1275.42V130.055H1282.84V124.98Z"/>
    <path d="M1252.78 124.98H1202.42V130.055H1252.78V124.98Z"/>
    <path
     d="M1168.45 157.772H1147.37V162.847H1168.45V157.772Z"
    />
    <path
     d="M1241.46 157.772H1234.04V162.847H1241.46V157.772Z"
    />
    <path
     d="M1256.29 157.772H1248.87V162.847H1256.29V157.772Z"
    />
    <path
     d="M1226.23 157.772H1175.87V162.847H1226.23V157.772Z"
    />
    <path
     d="M1255.51 136.301H1234.43V141.376H1255.51V136.301Z"
    />
    <path
     d="M1284.01 136.301H1262.93V141.376H1284.01V136.301Z"
    />
    <path
     d="M1154.79 136.301H1147.37V141.376H1154.79V136.301Z"
    />
    <path
     d="M1169.63 136.301H1162.21V141.376H1169.63V136.301Z"
    />
    <path d="M1227.4 136.301H1177.04V141.376H1227.4V136.301Z"/>
    <path
     d="M1211.79 147.232H1190.71V152.307H1211.79V147.232Z"
    />
    <path
     d="M1183.29 147.232H1162.21V152.307H1183.29V147.232Z"
    />
    <path
     d="M1154.79 147.232H1147.37V152.307H1154.79V147.232Z"
    />
    <path
     d="M1284.01 147.232H1276.59V152.307H1284.01V147.232Z"
    />
    <path
     d="M1269.17 147.232H1218.81V152.307H1269.17V147.232Z"
    />
   </g>
  </g>
  <g id="Adventure">
   <path
    id="Adventures Through Coding"
    d="M96.1873 255.816C96.2299 255.987 96.2513 256.136 96.2513 256.264C96.2513 256.435 96.2513 256.563 96.2513 256.648C96.2513 257.075 96.1446 257.373 95.9313 257.544C95.7606 257.715 95.3979 257.8 94.8433 257.8C94.3313 257.8 93.9899 257.715 93.8193 257.544C93.5633 257.288 93.2219 256.627 92.7953 255.56C92.3686 254.493 91.9206 253.235 91.4513 251.784C90.9819 250.333 90.5126 248.776 90.0433 247.112C89.6166 245.448 89.2326 243.869 88.8913 242.376C88.4219 242.589 87.7819 242.824 86.9713 243.08C86.1606 243.293 85.3286 243.507 84.4753 243.72C83.4939 243.933 82.4699 244.168 81.4033 244.424C81.0193 246.259 80.7206 247.837 80.5073 249.16C80.3366 250.44 80.1659 251.507 79.9953 252.36C79.8673 253.171 79.6753 253.768 79.4193 254.152C79.2059 254.579 78.8433 254.792 78.3313 254.792C77.9899 254.792 77.6913 254.6 77.4353 254.216C77.1793 253.832 77.0513 253.256 77.0513 252.488C77.0513 252.104 77.1579 251.208 77.3713 249.8C77.5846 248.392 77.8193 246.835 78.0753 245.128C78.3313 243.379 78.5873 241.651 78.8433 239.944C79.0993 238.237 79.2699 236.893 79.3553 235.912C79.3979 235.4 79.5259 234.568 79.7393 233.416C79.9953 232.264 80.2513 231.091 80.5073 229.896C80.7633 228.659 81.0193 227.549 81.2753 226.568C81.5313 225.587 81.7019 225.032 81.7873 224.904C82.4699 223.325 82.8966 221.704 83.0673 220.04C83.2806 218.376 83.4299 216.861 83.5153 215.496C83.6433 214.088 83.8353 212.957 84.0913 212.104C84.3473 211.208 84.8806 210.76 85.6913 210.76C85.9046 210.76 86.1179 210.931 86.3313 211.272C86.5873 211.613 86.8219 212.019 87.0353 212.488C87.2486 212.957 87.4193 213.427 87.5473 213.896C87.6753 214.323 87.7606 214.664 87.8033 214.92C87.8459 215.176 87.8886 215.688 87.9313 216.456C88.0166 217.224 88.0806 218.077 88.1233 219.016C88.2086 219.912 88.2726 220.808 88.3153 221.704C88.4006 222.557 88.4646 223.219 88.5073 223.688C88.6353 225.096 88.8273 226.675 89.0833 228.424C89.3819 230.173 89.6806 231.816 89.9792 233.352C90.2779 234.888 90.5553 236.189 90.8113 237.256C91.0673 238.28 91.2593 238.792 91.3873 238.792C91.5579 238.792 91.7713 238.749 92.0273 238.664C92.3259 238.579 92.6033 238.536 92.8593 238.536C93.2006 238.536 93.3713 238.707 93.3713 239.048C93.3713 239.389 93.2859 239.667 93.1153 239.88C92.9446 240.093 92.7526 240.285 92.5393 240.456C92.3686 240.627 92.1979 240.776 92.0273 240.904C91.8993 241.032 91.8353 241.181 91.8353 241.352C91.8353 241.693 92.0273 242.568 92.4113 243.976L93.4353 247.752C93.5206 248.093 93.7126 248.669 94.0113 249.48C94.3099 250.291 94.6086 251.144 94.9073 252.04C95.2486 252.893 95.5473 253.683 95.8033 254.408C96.0593 255.176 96.1873 255.645 96.1873 255.816ZM81.9792 241.16C82.2353 241.16 82.7046 241.096 83.3873 240.968C84.0699 240.797 84.7739 240.605 85.4993 240.392C86.2246 240.179 86.8646 239.965 87.4193 239.752C87.9739 239.539 88.2513 239.368 88.2513 239.24C88.2513 239.112 88.1659 238.792 87.9953 238.28C87.8673 237.725 87.6966 237.043 87.4833 236.232C87.3126 235.379 87.1206 234.419 86.9073 233.352C86.6939 232.285 86.5019 231.155 86.3313 229.96C86.2459 229.192 86.1393 228.147 86.0113 226.824C85.8833 225.501 85.7553 224.2 85.6273 222.92C85.4993 221.597 85.3926 220.467 85.3073 219.528C85.2219 218.589 85.1793 218.12 85.1793 218.12C85.1793 218.12 85.1153 218.44 84.9873 219.08C84.8593 219.677 84.7099 220.36 84.5393 221.128C84.4113 221.853 84.2833 222.557 84.1553 223.24C84.0699 223.88 84.0273 224.243 84.0273 224.328V226.12C84.0273 226.205 83.9633 226.589 83.8353 227.272C83.7499 227.912 83.6219 228.744 83.4513 229.768C83.2806 230.749 83.0886 231.837 82.8753 233.032C82.7046 234.184 82.5339 235.293 82.3633 236.36C82.1926 237.427 82.0433 238.387 81.9153 239.24C81.8299 240.051 81.7873 240.605 81.7873 240.904C81.7873 241.075 81.8513 241.16 81.9792 241.16ZM120.203 242.696C120.203 242.909 120.097 243.123 119.883 243.336C119.713 243.507 119.606 243.699 119.563 243.912C119.563 244.381 119.649 244.829 119.819 245.256C120.033 245.683 120.139 246.195 120.139 246.792C120.139 247.347 119.969 247.624 119.627 247.624C119.201 247.624 118.881 247.688 118.667 247.816C118.497 247.901 118.177 247.987 117.707 248.072C117.451 248.072 117.174 247.837 116.875 247.368C116.705 247.155 116.555 246.899 116.427 246.6C116.427 246.557 116.299 246.643 116.043 246.856C115.83 247.069 115.446 247.325 114.891 247.624C114.379 247.88 113.654 248.136 112.715 248.392C111.819 248.605 110.667 248.712 109.259 248.712C108.065 248.712 107.019 248.456 106.123 247.944C105.227 247.389 104.481 246.685 103.883 245.832C103.329 244.979 102.902 244.019 102.603 242.952C102.347 241.843 102.219 240.733 102.219 239.624C102.219 238.6 102.326 237.64 102.539 236.744C102.795 235.805 103.137 234.995 103.563 234.312C103.99 233.587 104.523 233.011 105.163 232.584C105.803 232.157 106.55 231.944 107.403 231.944C108.214 231.944 109.025 232.2 109.835 232.712C110.646 233.224 111.371 233.779 112.011 234.376C112.651 234.973 113.163 235.528 113.547 236.04C113.974 236.509 114.187 236.744 114.187 236.744C113.59 233.416 113.057 230.408 112.587 227.72C112.374 226.568 112.161 225.437 111.947 224.328C111.777 223.176 111.606 222.152 111.435 221.256C111.265 220.36 111.115 219.613 110.987 219.016C110.902 218.376 110.859 217.992 110.859 217.864C110.817 217.608 110.774 217.16 110.731 216.52C110.689 215.837 110.646 215.133 110.603 214.408C110.561 213.683 110.518 213.021 110.475 212.424C110.433 211.827 110.39 211.443 110.347 211.272C110.219 210.845 110.049 210.312 109.835 209.672C109.665 209.032 109.579 208.669 109.579 208.584C109.579 208.371 109.686 208.115 109.899 207.816C110.113 207.475 110.39 207.304 110.731 207.304C110.987 207.304 111.222 207.325 111.435 207.368C111.649 207.411 111.841 207.539 112.011 207.752C112.182 207.965 112.331 208.307 112.459 208.776C112.63 209.203 112.779 209.821 112.907 210.632C112.95 211.059 113.078 211.869 113.291 213.064C113.505 214.259 113.718 215.56 113.931 216.968C114.145 218.376 114.358 219.72 114.571 221C114.785 222.28 114.934 223.219 115.019 223.816C115.233 225.437 115.51 227.208 115.851 229.128C116.235 231.005 116.619 232.819 117.003 234.568C117.387 236.317 117.771 237.875 118.155 239.24C118.539 240.563 118.881 241.459 119.179 241.928C119.265 242.099 119.435 242.227 119.691 242.312C119.947 242.355 120.118 242.483 120.203 242.696ZM115.467 243.976C115.425 243.848 115.147 243.315 114.635 242.376C114.166 241.395 113.547 240.349 112.779 239.24C112.054 238.088 111.222 237.064 110.283 236.168C109.387 235.272 108.513 234.824 107.659 234.824C106.934 234.824 106.337 235.379 105.867 236.488C105.441 237.597 105.227 238.877 105.227 240.328C105.227 241.949 105.697 243.251 106.635 244.232C107.617 245.213 108.705 245.704 109.899 245.704C110.923 245.704 111.99 245.533 113.099 245.192C114.209 244.851 114.998 244.445 115.467 243.976ZM137.57 230.472C137.57 230.6 137.463 231.155 137.25 232.136C137.036 233.117 136.823 234.227 136.61 235.464C136.482 236.189 136.268 237.277 135.97 238.728C135.714 240.136 135.586 242.291 135.586 245.192C135.586 245.277 135.564 245.512 135.522 245.896C135.522 246.237 135.458 246.6 135.33 246.984C135.244 247.368 135.095 247.731 134.882 248.072C134.668 248.371 134.348 248.52 133.922 248.52C133.538 248.52 133.111 248.349 132.642 248.008C131.575 247.24 130.594 246.344 129.698 245.32C128.802 244.296 128.034 243.187 127.394 241.992C126.754 240.755 126.263 239.475 125.922 238.152C125.58 236.829 125.41 235.485 125.41 234.12C125.41 233.949 125.516 233.8 125.73 233.672C125.986 233.501 126.178 233.416 126.306 233.416C126.946 233.416 127.436 233.779 127.778 234.504C128.162 235.229 128.524 236.104 128.866 237.128C129.25 238.152 129.676 239.24 130.146 240.392C130.658 241.501 131.404 242.461 132.386 243.272C132.514 243.101 132.62 242.781 132.706 242.312C132.791 241.843 132.855 241.437 132.898 241.096C132.94 240.797 133.004 240.221 133.09 239.368C133.175 238.472 133.26 237.533 133.346 236.552C133.474 235.571 133.559 234.632 133.602 233.736C133.687 232.84 133.73 232.221 133.73 231.88C133.73 231.624 133.751 231.325 133.794 230.984C133.836 230.643 133.922 230.323 134.05 230.024C134.22 229.725 134.434 229.469 134.69 229.256C134.946 229.043 135.287 228.936 135.714 228.936C135.927 228.936 136.29 229.085 136.802 229.384C137.314 229.64 137.57 230.003 137.57 230.472ZM161.008 246.28C161.051 246.365 161.072 246.493 161.072 246.664C161.072 246.92 160.88 247.304 160.496 247.816C160.368 247.987 160.091 248.264 159.664 248.648C159.238 249.032 158.662 249.416 157.936 249.8C157.211 250.184 156.315 250.525 155.248 250.824C154.224 251.123 153.008 251.272 151.6 251.272C150.619 251.272 149.659 251.059 148.72 250.632C147.782 250.163 146.95 249.501 146.224 248.648C145.499 247.752 144.902 246.664 144.432 245.384C143.963 244.061 143.728 242.525 143.728 240.776C143.728 239.112 143.942 237.555 144.368 236.104C144.795 234.653 145.328 233.373 145.968 232.264C146.651 231.155 147.398 230.28 148.208 229.64C149.019 229 149.808 228.68 150.576 228.68C151.259 228.68 151.942 228.829 152.624 229.128C153.35 229.384 153.99 229.725 154.544 230.152C155.142 230.579 155.611 231.069 155.952 231.624C156.294 232.136 156.464 232.669 156.464 233.224C156.464 233.864 156.166 234.525 155.568 235.208C155.014 235.891 154.331 236.531 153.52 237.128C152.71 237.683 151.899 238.152 151.088 238.536C150.278 238.877 149.638 239.048 149.168 239.048C148.912 239.048 148.678 238.941 148.464 238.728C148.294 238.472 148.208 238.173 148.208 237.832C148.208 237.235 148.464 236.765 148.976 236.424C149.531 236.083 150.128 235.784 150.768 235.528C151.408 235.229 151.984 234.888 152.496 234.504C153.051 234.12 153.328 233.587 153.328 232.904C153.328 232.819 153.222 232.605 153.008 232.264C152.795 231.923 152.219 231.752 151.28 231.752C150.854 231.752 150.363 232.008 149.808 232.52C149.254 232.989 148.72 233.651 148.208 234.504C147.696 235.315 147.27 236.296 146.928 237.448C146.587 238.557 146.416 239.773 146.416 241.096C146.416 242.205 146.608 243.208 146.992 244.104C147.419 245 147.952 245.768 148.592 246.408C149.232 247.005 149.979 247.475 150.832 247.816C151.686 248.157 152.56 248.328 153.456 248.328C154.096 248.328 154.779 248.2 155.504 247.944C156.272 247.645 156.976 247.347 157.616 247.048C158.299 246.707 158.875 246.408 159.344 246.152C159.856 245.853 160.176 245.704 160.304 245.704C160.432 245.704 160.56 245.768 160.688 245.896C160.859 246.024 160.966 246.152 161.008 246.28ZM184.729 245.128C184.729 245.384 184.643 245.64 184.473 245.896C184.302 246.152 184.089 246.387 183.833 246.6C183.619 246.813 183.363 247.005 183.065 247.176C182.809 247.304 182.574 247.368 182.361 247.368C181.635 247.368 180.697 247.219 179.545 246.92C178.435 246.579 177.539 246.067 176.857 245.384C176.131 244.659 175.491 243.805 174.937 242.824C174.382 241.8 173.763 240.307 173.081 238.344C172.611 240.221 172.057 242.077 171.417 243.912C170.819 245.747 169.838 247.432 168.473 248.968C168.387 249.053 168.259 249.096 168.089 249.096C167.79 249.096 167.47 248.947 167.129 248.648C166.787 248.349 166.617 248.051 166.617 247.752C166.617 247.453 166.574 246.771 166.489 245.704C166.446 244.595 166.382 243.379 166.297 242.056C166.211 240.691 166.126 239.325 166.041 237.96C165.998 236.552 165.977 235.4 165.977 234.504C165.977 234.077 165.998 233.523 166.041 232.84C166.083 232.115 166.211 231.496 166.425 230.984C166.467 230.899 166.617 230.728 166.873 230.472C167.171 230.216 167.491 230.088 167.833 230.088C168.131 230.088 168.302 230.28 168.345 230.664C168.387 231.048 168.409 231.475 168.409 231.944V242.056C168.409 242.269 168.43 242.568 168.473 242.952C168.558 243.336 168.665 243.613 168.793 243.784C169.262 242.76 169.689 241.565 170.073 240.2C170.499 238.792 170.905 237.469 171.289 236.232C171.673 234.952 172.057 233.885 172.441 233.032C172.825 232.136 173.209 231.688 173.593 231.688C174.019 231.688 174.361 231.773 174.617 231.944C174.873 232.115 175.086 232.456 175.257 232.968C175.47 234.205 175.641 235.315 175.769 236.296C175.897 237.235 176.046 238.088 176.217 238.856C176.43 239.624 176.707 240.349 177.049 241.032C177.433 241.672 177.945 242.269 178.585 242.824C179.182 243.379 179.843 243.784 180.569 244.04C181.337 244.296 181.998 244.424 182.553 244.424C182.809 244.424 183.086 244.381 183.385 244.296C183.683 244.168 183.897 244.104 184.025 244.104C184.195 244.104 184.345 244.253 184.473 244.552C184.643 244.851 184.729 245.043 184.729 245.128ZM204.989 224.072C204.434 224.712 203.645 225.352 202.621 225.992C201.597 226.589 200.573 227.144 199.549 227.656C198.525 228.168 197.629 228.616 196.861 229C196.093 229.341 195.709 229.576 195.709 229.704C195.709 229.832 195.794 230.216 195.965 230.856C196.135 231.496 196.327 232.264 196.541 233.16C196.797 234.013 197.053 234.909 197.309 235.848C197.565 236.787 197.778 237.619 197.949 238.344C198.034 238.771 198.141 239.325 198.269 240.008C198.397 240.691 198.503 241.373 198.589 242.056C198.717 242.739 198.823 243.357 198.909 243.912C198.994 244.424 199.037 244.701 199.037 244.744C199.037 245.384 198.93 246.045 198.717 246.728C198.503 247.411 198.162 247.752 197.693 247.752C197.437 247.752 197.202 247.645 196.989 247.432C196.775 247.219 196.583 246.984 196.413 246.728C196.242 246.429 196.114 246.152 196.029 245.896C195.943 245.64 195.901 245.448 195.901 245.32C195.901 245.235 195.901 245.107 195.901 244.936C195.943 244.765 195.965 244.573 195.965 244.36C195.965 243.549 195.837 242.376 195.581 240.84C195.495 240.371 195.325 239.645 195.069 238.664C194.813 237.683 194.557 236.68 194.301 235.656C194.002 234.461 193.661 233.16 193.277 231.752C193.106 231.155 192.999 230.856 192.957 230.856C192.658 230.856 192.146 231.048 191.421 231.432C190.738 231.773 189.949 232.221 189.053 232.776C188.157 233.288 187.218 233.864 186.237 234.504C185.255 235.101 184.338 235.677 183.485 236.232C182.631 236.744 181.906 237.192 181.309 237.576C180.669 237.917 180.285 238.088 180.157 238.088C179.602 238.088 179.154 237.896 178.813 237.512C178.471 237.128 178.301 236.701 178.301 236.232C178.301 235.976 178.663 235.613 179.389 235.144C180.071 234.632 180.946 234.077 182.013 233.48C183.037 232.883 184.167 232.264 185.405 231.624C186.599 230.984 187.709 230.408 188.733 229.896C189.799 229.384 190.674 228.957 191.357 228.616C192.082 228.275 192.445 228.104 192.445 228.104C192.061 226.141 191.741 224.392 191.485 222.856C191.271 221.533 191.058 220.317 190.845 219.208C190.674 218.099 190.589 217.501 190.589 217.416C190.589 216.861 190.695 216.456 190.909 216.2C191.165 215.901 191.442 215.752 191.741 215.752C192.21 215.752 192.509 216.072 192.637 216.712C193.106 219.016 193.533 221.064 193.917 222.856C194.343 224.648 194.749 226.099 195.133 227.208C195.517 227.123 196.178 226.888 197.117 226.504C198.055 226.077 199.037 225.629 200.061 225.16C201.085 224.691 202.002 224.285 202.813 223.944C203.666 223.56 204.157 223.368 204.285 223.368C204.541 223.368 204.69 223.453 204.733 223.624C204.818 223.795 204.903 223.944 204.989 224.072ZM229.522 242.376C229.522 242.76 229.266 243.165 228.754 243.592C228.242 244.019 227.645 244.424 226.962 244.808C226.28 245.149 225.576 245.448 224.85 245.704C224.168 245.96 223.656 246.088 223.314 246.088C222.93 246.088 222.504 245.981 222.034 245.768C221.608 245.555 221.181 245.299 220.754 245C220.37 244.701 220.029 244.424 219.73 244.168C219.432 243.912 219.24 243.741 219.154 243.656C219.026 243.784 218.834 244.04 218.578 244.424C218.322 244.808 218.002 245.235 217.618 245.704C217.277 246.131 216.893 246.515 216.466 246.856C216.082 247.197 215.677 247.368 215.25 247.368C214.141 247.368 213.181 246.771 212.37 245.576C211.56 244.381 210.877 243.016 210.322 241.48C209.81 239.944 209.405 238.472 209.106 237.064C208.85 235.613 208.722 234.632 208.722 234.12C208.722 233.821 208.872 233.587 209.17 233.416C209.512 233.203 209.768 233.096 209.938 233.096C210.536 233.096 210.941 233.309 211.154 233.736C211.368 234.12 211.474 234.547 211.474 235.016C211.474 235.4 211.581 236.083 211.794 237.064C212.05 238.045 212.349 239.048 212.69 240.072C213.032 241.096 213.394 242.013 213.778 242.824C214.162 243.592 214.504 243.976 214.802 243.976C215.357 243.976 215.826 243.635 216.21 242.952C216.637 242.227 216.978 241.416 217.234 240.52C217.49 239.581 217.682 238.707 217.81 237.896C217.938 237.043 218.002 236.488 218.002 236.232C218.002 236.189 218.002 236.061 218.002 235.848C218.045 235.592 218.088 235.336 218.13 235.08C218.173 234.824 218.194 234.589 218.194 234.376C218.237 234.163 218.258 234.013 218.258 233.928C218.258 233.629 218.194 233.437 218.066 233.352C217.938 233.224 217.874 232.989 217.874 232.648C217.874 232.392 218.002 232.157 218.258 231.944C218.514 231.688 219.069 231.56 219.922 231.56C220.264 231.56 220.52 231.667 220.69 231.88C220.904 232.051 221.053 232.264 221.138 232.52C221.224 232.776 221.266 233.032 221.266 233.288C221.309 233.501 221.33 233.651 221.33 233.736C221.33 233.779 221.309 234.077 221.266 234.632C221.224 235.187 221.181 235.805 221.138 236.488C221.138 237.128 221.117 237.747 221.074 238.344C221.032 238.941 221.01 239.304 221.01 239.432C221.01 239.56 221.074 239.816 221.202 240.2C221.33 240.584 221.48 240.989 221.65 241.416C221.864 241.8 222.098 242.163 222.354 242.504C222.61 242.803 222.888 242.952 223.186 242.952C223.698 242.952 224.168 242.888 224.594 242.76C225.064 242.589 225.49 242.419 225.874 242.248C226.301 242.035 226.685 241.864 227.026 241.736C227.368 241.565 227.688 241.48 227.986 241.48C228.37 241.48 228.712 241.565 229.01 241.736C229.352 241.907 229.522 242.12 229.522 242.376ZM247.195 233.48C247.195 233.779 247.067 234.035 246.811 234.248C246.555 234.419 246.257 234.568 245.915 234.696C245.574 234.824 245.233 234.931 244.891 235.016C244.55 235.059 244.273 235.08 244.059 235.08C243.419 235.08 242.993 235.037 242.779 234.952C242.566 234.867 242.395 234.824 242.267 234.824C241.201 234.824 240.347 234.909 239.707 235.08C239.067 235.251 238.555 235.528 238.171 235.912C237.83 236.296 237.595 236.787 237.467 237.384C237.382 237.939 237.339 238.621 237.339 239.432C237.339 240.797 237.382 241.885 237.467 242.696C237.595 243.507 237.702 244.168 237.787 244.68C237.915 245.192 238.022 245.597 238.107 245.896C238.235 246.152 238.299 246.408 238.299 246.664C238.299 247.005 238.107 247.368 237.723 247.752C237.382 248.136 237.062 248.328 236.763 248.328C236.251 248.328 235.782 247.88 235.355 246.984C234.971 246.045 234.63 244.957 234.331 243.72C234.075 242.44 233.862 241.181 233.691 239.944C233.521 238.707 233.435 237.768 233.435 237.128C233.435 236.403 233.499 235.72 233.627 235.08C233.755 234.397 233.926 233.821 234.139 233.352C234.353 232.84 234.587 232.435 234.843 232.136C235.099 231.837 235.355 231.688 235.611 231.688C235.825 231.688 235.995 231.773 236.123 231.944C236.251 232.072 236.358 232.243 236.443 232.456C236.529 232.627 236.614 232.797 236.699 232.968C236.827 233.096 236.977 233.16 237.147 233.16C237.531 233.16 238.15 232.968 239.003 232.584C239.857 232.2 240.902 232.008 242.139 232.008C243.291 232.008 244.145 232.051 244.699 232.136C245.297 232.179 245.873 232.307 246.427 232.52C246.555 232.563 246.705 232.669 246.875 232.84C247.089 232.968 247.195 233.181 247.195 233.48ZM270.133 246.28C270.176 246.365 270.197 246.493 270.197 246.664C270.197 246.92 270.005 247.304 269.621 247.816C269.493 247.987 269.216 248.264 268.789 248.648C268.363 249.032 267.787 249.416 267.061 249.8C266.336 250.184 265.44 250.525 264.373 250.824C263.349 251.123 262.133 251.272 260.725 251.272C259.744 251.272 258.784 251.059 257.845 250.632C256.907 250.163 256.075 249.501 255.349 248.648C254.624 247.752 254.027 246.664 253.557 245.384C253.088 244.061 252.853 242.525 252.853 240.776C252.853 239.112 253.067 237.555 253.493 236.104C253.92 234.653 254.453 233.373 255.093 232.264C255.776 231.155 256.523 230.28 257.333 229.64C258.144 229 258.933 228.68 259.701 228.68C260.384 228.68 261.067 228.829 261.749 229.128C262.475 229.384 263.115 229.725 263.669 230.152C264.267 230.579 264.736 231.069 265.077 231.624C265.419 232.136 265.589 232.669 265.589 233.224C265.589 233.864 265.291 234.525 264.693 235.208C264.139 235.891 263.456 236.531 262.645 237.128C261.835 237.683 261.024 238.152 260.213 238.536C259.403 238.877 258.763 239.048 258.293 239.048C258.037 239.048 257.803 238.941 257.589 238.728C257.419 238.472 257.333 238.173 257.333 237.832C257.333 237.235 257.589 236.765 258.101 236.424C258.656 236.083 259.253 235.784 259.893 235.528C260.533 235.229 261.109 234.888 261.621 234.504C262.176 234.12 262.453 233.587 262.453 232.904C262.453 232.819 262.347 232.605 262.133 232.264C261.92 231.923 261.344 231.752 260.405 231.752C259.979 231.752 259.488 232.008 258.933 232.52C258.379 232.989 257.845 233.651 257.333 234.504C256.821 235.315 256.395 236.296 256.053 237.448C255.712 238.557 255.541 239.773 255.541 241.096C255.541 242.205 255.733 243.208 256.117 244.104C256.544 245 257.077 245.768 257.717 246.408C258.357 247.005 259.104 247.475 259.957 247.816C260.811 248.157 261.685 248.328 262.581 248.328C263.221 248.328 263.904 248.2 264.629 247.944C265.397 247.645 266.101 247.347 266.741 247.048C267.424 246.707 268 246.408 268.469 246.152C268.981 245.853 269.301 245.704 269.429 245.704C269.557 245.704 269.685 245.768 269.813 245.896C269.984 246.024 270.091 246.152 270.133 246.28ZM289.054 244.552C289.054 245.277 288.798 245.917 288.286 246.472C287.816 246.984 287.198 247.432 286.43 247.816C285.704 248.157 284.894 248.435 283.998 248.648C283.102 248.861 282.248 249.032 281.438 249.16C280.627 249.245 279.902 249.309 279.262 249.352C278.664 249.352 278.28 249.352 278.11 249.352C277.171 249.352 276.446 249.203 275.934 248.904C275.422 248.605 275.166 248.072 275.166 247.304C275.166 247.048 275.187 246.835 275.23 246.664C275.272 246.451 275.443 246.344 275.742 246.344C275.87 246.344 276.083 246.387 276.382 246.472C276.68 246.515 276.915 246.536 277.086 246.536C277.256 246.536 277.79 246.515 278.686 246.472C279.624 246.387 280.606 246.259 281.63 246.088C282.696 245.917 283.635 245.683 284.446 245.384C285.299 245.043 285.726 244.616 285.726 244.104C285.726 244.019 285.278 243.763 284.382 243.336C283.528 242.867 282.227 242.099 280.478 241.032C279.112 240.179 278.152 239.325 277.598 238.472C277.043 237.576 276.766 236.381 276.766 234.888C276.766 233.949 276.958 233.181 277.342 232.584C277.768 231.987 278.323 231.517 279.006 231.176C279.731 230.835 280.542 230.6 281.438 230.472C282.376 230.301 283.358 230.216 284.382 230.216C284.467 230.216 284.723 230.259 285.15 230.344C285.619 230.429 286.11 230.579 286.622 230.792C287.134 230.963 287.582 231.197 287.966 231.496C288.392 231.752 288.606 232.051 288.606 232.392C288.606 232.477 288.52 232.605 288.35 232.776C288.222 232.947 287.987 233.267 287.646 233.736C287.518 233.693 287.283 233.629 286.942 233.544C286.643 233.459 286.28 233.373 285.854 233.288C285.47 233.16 285.064 233.075 284.638 233.032C284.211 232.947 283.87 232.904 283.614 232.904C282.504 232.904 281.608 233.117 280.926 233.544C280.243 233.928 279.902 234.696 279.902 235.848C279.902 236.403 280.115 236.915 280.542 237.384C281.011 237.853 281.587 238.301 282.27 238.728C282.952 239.112 283.678 239.517 284.446 239.944C285.256 240.328 286.003 240.755 286.686 241.224C287.368 241.693 287.923 242.205 288.35 242.76C288.819 243.272 289.054 243.869 289.054 244.552ZM356.357 217.864C356.357 218.163 356.229 218.419 355.973 218.632C355.759 218.803 355.546 218.888 355.333 218.888C354.949 218.888 354.33 218.931 353.477 219.016C352.666 219.101 351.77 219.208 350.789 219.336C349.85 219.421 348.911 219.528 347.973 219.656C347.077 219.741 346.351 219.827 345.797 219.912C345.626 219.912 345.263 219.933 344.709 219.976C344.197 220.019 343.599 220.083 342.917 220.168C342.277 220.211 341.615 220.275 340.933 220.36C340.293 220.445 339.781 220.509 339.397 220.552C338.927 220.637 338.245 220.787 337.349 221C336.453 221.213 335.642 221.427 334.917 221.64C334.661 221.725 334.426 221.789 334.213 221.832C333.999 221.875 333.829 221.917 333.701 221.96C333.53 222.003 333.381 222.045 333.253 222.088L336.709 234.312C336.837 234.696 337.05 235.315 337.349 236.168C337.647 237.021 337.989 237.96 338.373 238.984C338.799 240.008 339.226 241.075 339.653 242.184C340.122 243.293 340.527 244.317 340.869 245.256C341.082 245.811 341.317 246.493 341.573 247.304C341.829 248.115 342.063 248.947 342.277 249.8C342.49 250.611 342.661 251.357 342.789 252.04C342.959 252.723 343.045 253.192 343.045 253.448C343.045 254.045 342.874 254.664 342.533 255.304C342.191 255.987 341.743 256.328 341.189 256.328C340.677 256.328 340.421 255.965 340.421 255.24V254.792C340.421 254.664 340.421 254.515 340.421 254.344C340.463 254.173 340.485 253.981 340.485 253.768C340.485 253.427 340.357 252.851 340.101 252.04C339.845 251.187 339.525 250.248 339.141 249.224C338.757 248.157 338.33 247.048 337.861 245.896C337.434 244.701 337.007 243.592 336.581 242.568C336.197 241.501 335.855 240.605 335.557 239.88C335.258 239.112 335.066 238.6 334.981 238.344C334.853 238.003 334.682 237.512 334.469 236.872C334.298 236.232 334.085 235.507 333.829 234.696C333.573 233.885 333.295 233.032 332.997 232.136C332.741 231.197 332.485 230.28 332.229 229.384C331.589 227.293 330.885 225.011 330.117 222.536C329.903 222.579 329.199 222.685 328.005 222.856C326.853 222.984 325.551 223.133 324.101 223.304C322.65 223.475 321.263 223.645 319.941 223.816C318.618 223.944 317.722 224.008 317.253 224.008C316.186 224.008 315.503 223.837 315.205 223.496C314.906 223.155 314.735 222.728 314.693 222.216C314.693 221.875 314.778 221.533 314.949 221.192C315.119 220.808 315.354 220.616 315.653 220.616C315.994 220.616 316.271 220.68 316.485 220.808C316.655 220.893 316.89 220.936 317.189 220.936C317.274 220.936 317.701 220.893 318.469 220.808C319.279 220.723 320.218 220.616 321.285 220.488C322.394 220.36 323.525 220.232 324.677 220.104C325.871 219.976 326.917 219.869 327.813 219.784C328.026 219.784 328.239 219.784 328.453 219.784C328.709 219.741 328.943 219.699 329.157 219.656C329.37 219.613 329.583 219.592 329.797 219.592C329.797 219.464 329.861 219.187 329.989 218.76C330.159 218.291 330.33 218.056 330.501 218.056C330.927 218.056 331.269 218.227 331.525 218.568C331.823 218.867 332.079 219.08 332.293 219.208C332.591 219.165 333.039 219.08 333.637 218.952C334.277 218.781 334.938 218.632 335.621 218.504C336.346 218.376 337.029 218.269 337.669 218.184C338.351 218.056 338.927 217.971 339.397 217.928L346.885 217.48C347.525 217.437 348.25 217.395 349.061 217.352C349.914 217.267 350.746 217.181 351.557 217.096C352.367 217.011 353.071 216.947 353.669 216.904C354.266 216.819 354.671 216.776 354.885 216.776C355.269 216.819 355.61 216.947 355.909 217.16C356.207 217.373 356.357 217.608 356.357 217.864ZM368.821 241.16C369.035 241.373 369.141 241.501 369.141 241.544C369.141 241.629 369.013 241.885 368.757 242.312C368.544 242.739 368.245 243.187 367.861 243.656C367.477 244.125 367.051 244.552 366.581 244.936C366.155 245.277 365.728 245.448 365.301 245.448C364.405 245.448 363.68 245.277 363.125 244.936C362.571 244.552 362.101 244.083 361.717 243.528C361.376 242.973 361.099 242.376 360.885 241.736C360.715 241.053 360.565 240.413 360.437 239.816C360.352 239.517 360.267 239.368 360.181 239.368C360.053 239.368 359.797 239.837 359.413 240.776C359.029 241.672 358.603 242.675 358.133 243.784C357.707 244.851 357.28 245.853 356.853 246.792C356.469 247.688 356.213 248.136 356.085 248.136C355.317 248.136 354.656 247.816 354.101 247.176C353.589 246.493 353.163 245.725 352.821 244.872C352.523 243.976 352.288 243.08 352.117 242.184C351.947 241.245 351.84 240.52 351.797 240.008C351.669 238.856 351.392 236.936 350.965 234.248C350.539 231.56 350.176 228.296 349.877 224.456C349.792 223.645 349.685 222.92 349.557 222.28C349.472 221.597 349.365 220.851 349.237 220.04C349.109 219.229 349.003 218.312 348.917 217.288C348.832 216.264 348.789 215.005 348.789 213.512C348.789 213.427 348.811 213.149 348.853 212.68C348.896 212.211 348.96 211.699 349.045 211.144C349.131 210.589 349.259 210.099 349.429 209.672C349.643 209.245 349.877 209.032 350.133 209.032C350.432 209.032 350.709 209.224 350.965 209.608C351.221 209.949 351.435 210.355 351.605 210.824C351.819 211.293 351.968 211.741 352.053 212.168C352.139 212.595 352.181 212.893 352.181 213.064C352.181 213.704 352.139 214.301 352.053 214.856C351.968 215.411 351.925 215.923 351.925 216.392C351.925 217.032 351.968 217.843 352.053 218.824C352.181 219.805 352.331 220.808 352.501 221.832C352.672 222.856 352.821 223.859 352.949 224.84C353.077 225.779 353.184 226.547 353.269 227.144C353.269 227.187 353.312 227.485 353.397 228.04C353.483 228.595 353.568 229.299 353.653 230.152C353.781 230.963 353.888 231.859 353.973 232.84C354.101 233.779 354.229 234.717 354.357 235.656C354.485 236.552 354.592 237.363 354.677 238.088C354.805 238.771 354.891 239.261 354.933 239.56C354.933 239.688 354.955 239.88 354.997 240.136C355.083 240.349 355.147 240.605 355.189 240.904C355.275 241.203 355.36 241.48 355.445 241.736C355.531 241.992 355.637 242.184 355.765 242.312C356.021 241.8 356.341 241.011 356.725 239.944C357.152 238.877 357.579 237.789 358.005 236.68C358.475 235.571 358.901 234.611 359.285 233.8C359.712 232.947 360.075 232.52 360.373 232.52C360.715 232.52 360.992 232.584 361.205 232.712C361.419 232.84 361.696 232.947 362.037 233.032C362.464 233.203 362.677 233.437 362.677 233.736C362.677 233.992 362.72 234.312 362.805 234.696C362.891 235.208 363.019 235.891 363.189 236.744C363.403 237.555 363.637 238.365 363.893 239.176C364.149 239.944 364.448 240.605 364.789 241.16C365.131 241.715 365.472 241.992 365.813 241.992C365.984 241.992 366.219 241.779 366.517 241.352C366.816 240.883 367.221 240.627 367.733 240.584C367.819 240.584 367.968 240.648 368.181 240.776C368.395 240.861 368.608 240.989 368.821 241.16ZM388.008 233.48C388.008 233.779 387.88 234.035 387.624 234.248C387.368 234.419 387.069 234.568 386.728 234.696C386.386 234.824 386.045 234.931 385.704 235.016C385.362 235.059 385.085 235.08 384.872 235.08C384.232 235.08 383.805 235.037 383.592 234.952C383.378 234.867 383.208 234.824 383.08 234.824C382.013 234.824 381.16 234.909 380.52 235.08C379.88 235.251 379.368 235.528 378.984 235.912C378.642 236.296 378.408 236.787 378.28 237.384C378.194 237.939 378.152 238.621 378.152 239.432C378.152 240.797 378.194 241.885 378.28 242.696C378.408 243.507 378.514 244.168 378.6 244.68C378.728 245.192 378.834 245.597 378.92 245.896C379.048 246.152 379.112 246.408 379.112 246.664C379.112 247.005 378.92 247.368 378.536 247.752C378.194 248.136 377.874 248.328 377.576 248.328C377.064 248.328 376.594 247.88 376.168 246.984C375.784 246.045 375.442 244.957 375.144 243.72C374.888 242.44 374.674 241.181 374.504 239.944C374.333 238.707 374.248 237.768 374.248 237.128C374.248 236.403 374.312 235.72 374.44 235.08C374.568 234.397 374.738 233.821 374.952 233.352C375.165 232.84 375.4 232.435 375.656 232.136C375.912 231.837 376.168 231.688 376.424 231.688C376.637 231.688 376.808 231.773 376.936 231.944C377.064 232.072 377.17 232.243 377.256 232.456C377.341 232.627 377.426 232.797 377.512 232.968C377.64 233.096 377.789 233.16 377.96 233.16C378.344 233.16 378.962 232.968 379.816 232.584C380.669 232.2 381.714 232.008 382.952 232.008C384.104 232.008 384.957 232.051 385.512 232.136C386.109 232.179 386.685 232.307 387.24 232.52C387.368 232.563 387.517 232.669 387.688 232.84C387.901 232.968 388.008 233.181 388.008 233.48ZM404.61 239.176C404.61 240.115 404.482 241.011 404.226 241.864C403.97 242.717 403.628 243.464 403.202 244.104C402.775 244.744 402.263 245.256 401.666 245.64C401.111 245.981 400.492 246.152 399.81 246.152C398.615 246.152 397.676 245.811 396.994 245.128C396.311 244.445 395.778 243.656 395.394 242.76C395.052 241.864 394.818 240.968 394.69 240.072C394.604 239.133 394.562 238.429 394.562 237.96C394.562 237.192 394.668 236.339 394.882 235.4C395.138 234.419 395.458 233.523 395.842 232.712C396.268 231.901 396.738 231.219 397.25 230.664C397.762 230.109 398.295 229.832 398.85 229.832C398.978 229.832 399.17 229.875 399.426 229.96C399.724 230.045 400.023 230.173 400.322 230.344C400.62 230.515 400.876 230.728 401.09 230.984C401.346 231.24 401.516 231.539 401.602 231.88C402.071 231.923 402.54 232.093 403.01 232.392C403.479 232.691 403.735 232.925 403.778 233.096C404.119 234.205 404.332 235.315 404.418 236.424C404.546 237.533 404.61 238.451 404.61 239.176ZM401.73 238.024C401.73 237.384 401.666 236.723 401.538 236.04C401.41 235.315 401.154 234.589 400.77 233.864C400.684 233.907 400.578 233.928 400.45 233.928C400.279 233.928 400.13 233.907 400.002 233.864C399.916 233.821 399.831 233.8 399.746 233.8C399.234 233.8 398.828 233.949 398.53 234.248C398.231 234.504 397.996 234.867 397.826 235.336C397.698 235.763 397.612 236.232 397.57 236.744C397.527 237.256 397.506 237.747 397.506 238.216C397.506 238.685 397.527 239.219 397.57 239.816C397.612 240.371 397.698 240.904 397.826 241.416C397.996 241.928 398.21 242.376 398.466 242.76C398.722 243.101 399.063 243.272 399.49 243.272C399.916 243.272 400.279 243.059 400.578 242.632C400.876 242.163 401.111 241.629 401.282 241.032C401.452 240.435 401.559 239.859 401.602 239.304C401.687 238.707 401.73 238.28 401.73 238.024ZM432.147 242.376C432.147 242.76 431.891 243.165 431.379 243.592C430.867 244.019 430.27 244.424 429.587 244.808C428.905 245.149 428.201 245.448 427.475 245.704C426.793 245.96 426.281 246.088 425.939 246.088C425.555 246.088 425.129 245.981 424.659 245.768C424.233 245.555 423.806 245.299 423.379 245C422.995 244.701 422.654 244.424 422.355 244.168C422.057 243.912 421.865 243.741 421.779 243.656C421.651 243.784 421.459 244.04 421.203 244.424C420.947 244.808 420.627 245.235 420.243 245.704C419.902 246.131 419.518 246.515 419.091 246.856C418.707 247.197 418.302 247.368 417.875 247.368C416.766 247.368 415.806 246.771 414.995 245.576C414.185 244.381 413.502 243.016 412.947 241.48C412.435 239.944 412.03 238.472 411.731 237.064C411.475 235.613 411.347 234.632 411.347 234.12C411.347 233.821 411.497 233.587 411.795 233.416C412.137 233.203 412.393 233.096 412.563 233.096C413.161 233.096 413.566 233.309 413.779 233.736C413.993 234.12 414.099 234.547 414.099 235.016C414.099 235.4 414.206 236.083 414.419 237.064C414.675 238.045 414.974 239.048 415.315 240.072C415.657 241.096 416.019 242.013 416.403 242.824C416.787 243.592 417.129 243.976 417.427 243.976C417.982 243.976 418.451 243.635 418.835 242.952C419.262 242.227 419.603 241.416 419.859 240.52C420.115 239.581 420.307 238.707 420.435 237.896C420.563 237.043 420.627 236.488 420.627 236.232C420.627 236.189 420.627 236.061 420.627 235.848C420.67 235.592 420.713 235.336 420.755 235.08C420.798 234.824 420.819 234.589 420.819 234.376C420.862 234.163 420.883 234.013 420.883 233.928C420.883 233.629 420.819 233.437 420.691 233.352C420.563 233.224 420.499 232.989 420.499 232.648C420.499 232.392 420.627 232.157 420.883 231.944C421.139 231.688 421.694 231.56 422.547 231.56C422.889 231.56 423.145 231.667 423.315 231.88C423.529 232.051 423.678 232.264 423.763 232.52C423.849 232.776 423.891 233.032 423.891 233.288C423.934 233.501 423.955 233.651 423.955 233.736C423.955 233.779 423.934 234.077 423.891 234.632C423.849 235.187 423.806 235.805 423.763 236.488C423.763 237.128 423.742 237.747 423.699 238.344C423.657 238.941 423.635 239.304 423.635 239.432C423.635 239.56 423.699 239.816 423.827 240.2C423.955 240.584 424.105 240.989 424.275 241.416C424.489 241.8 424.723 242.163 424.979 242.504C425.235 242.803 425.513 242.952 425.811 242.952C426.323 242.952 426.793 242.888 427.219 242.76C427.689 242.589 428.115 242.419 428.499 242.248C428.926 242.035 429.31 241.864 429.651 241.736C429.993 241.565 430.313 241.48 430.611 241.48C430.995 241.48 431.337 241.565 431.635 241.736C431.977 241.907 432.147 242.12 432.147 242.376ZM450.588 247.368C450.588 247.837 450.418 248.157 450.076 248.328C449.735 248.499 449.564 248.733 449.564 249.032C449.522 248.989 449.607 249.224 449.82 249.736C450.034 250.248 450.226 250.781 450.396 251.336C450.695 252.488 450.951 253.491 451.164 254.344C451.42 255.197 451.612 255.987 451.74 256.712C451.911 257.437 452.039 258.163 452.124 258.888C452.21 259.613 452.252 260.424 452.252 261.32C452.252 262.216 452.103 263.133 451.804 264.072C451.506 265.011 451.079 265.843 450.524 266.568C449.97 267.293 449.287 267.891 448.476 268.36C447.666 268.829 446.748 269.064 445.724 269.064C444.146 269.064 442.887 268.744 441.948 268.104C441.052 267.464 440.37 266.739 439.9 265.928C439.431 265.117 439.132 264.307 439.004 263.496C438.876 262.728 438.812 262.216 438.812 261.96C438.812 260.381 439.218 258.803 440.028 257.224C440.839 255.645 441.735 254.216 442.716 252.936C443.698 251.656 444.594 250.589 445.404 249.736C446.215 248.883 446.62 248.392 446.62 248.264L445.916 246.152C445.49 246.664 445.106 247.24 444.764 247.88C444.466 248.477 444.124 249.053 443.74 249.608C443.399 250.12 442.972 250.568 442.46 250.952C441.991 251.293 441.394 251.464 440.668 251.464C439.9 251.464 439.132 251.229 438.364 250.76C437.596 250.291 436.914 249.587 436.316 248.648C435.719 247.709 435.228 246.579 434.844 245.256C434.503 243.933 434.332 242.397 434.332 240.648C434.332 239.667 434.482 238.451 434.78 237C435.079 235.507 435.548 234.077 436.188 232.712C436.828 231.347 437.618 230.195 438.556 229.256C439.538 228.275 440.668 227.784 441.948 227.784C442.674 227.784 443.335 227.912 443.932 228.168C444.572 228.424 444.892 228.744 444.892 229.128C444.892 229.469 444.828 229.747 444.7 229.96C444.572 230.173 444.402 230.387 444.188 230.6C444.06 230.515 443.911 230.429 443.74 230.344C443.612 230.259 443.42 230.216 443.164 230.216C442.226 230.216 441.372 230.643 440.604 231.496C439.879 232.307 439.26 233.331 438.748 234.568C438.236 235.763 437.831 237.021 437.532 238.344C437.276 239.667 437.148 240.819 437.148 241.8C437.148 243.976 437.511 245.64 438.236 246.792C438.962 247.901 439.73 248.456 440.54 248.456C440.924 248.456 441.33 248.179 441.756 247.624C442.226 247.027 442.652 246.387 443.036 245.704C443.463 244.979 443.826 244.296 444.124 243.656C444.423 243.016 444.594 242.632 444.636 242.504C444.722 242.077 444.764 241.587 444.764 241.032C444.764 240.563 444.743 240.051 444.7 239.496C444.7 238.899 444.7 238.301 444.7 237.704C444.7 236.595 444.786 235.677 444.956 234.952C445.127 234.184 445.554 233.8 446.236 233.8C446.919 233.8 447.41 234.013 447.708 234.44C448.007 234.824 448.156 235.293 448.156 235.848C448.156 236.232 448.135 236.701 448.092 237.256C448.092 237.768 448.092 238.28 448.092 238.792C448.092 239.261 448.071 239.688 448.028 240.072C448.028 240.413 448.028 240.627 448.028 240.712C448.028 240.968 448.05 241.352 448.092 241.864C448.178 242.333 448.242 242.824 448.284 243.336C448.37 243.805 448.434 244.253 448.476 244.68C448.562 245.064 448.626 245.32 448.668 245.448C448.711 245.576 448.775 245.768 448.86 246.024C448.946 246.28 449.031 246.472 449.116 246.6C449.159 246.515 449.244 246.429 449.372 246.344C449.5 246.216 449.607 246.109 449.692 246.024C449.906 246.152 450.098 246.408 450.268 246.792C450.482 247.133 450.588 247.325 450.588 247.368ZM448.412 255.496C448.242 254.813 448.05 254.131 447.836 253.448C447.623 252.765 447.41 252.061 447.196 251.336C446.471 252.232 445.767 253.085 445.084 253.896C444.444 254.749 443.847 255.581 443.292 256.392C442.78 257.203 442.354 258.035 442.012 258.888C441.714 259.784 441.564 260.723 441.564 261.704C441.564 263.027 441.927 264.115 442.652 264.968C443.42 265.821 444.252 266.248 445.148 266.248C446.13 266.248 447.047 265.885 447.9 265.16C448.796 264.435 449.244 263.389 449.244 262.024C449.244 261.128 449.223 260.381 449.18 259.784C449.138 259.187 449.074 258.653 448.988 258.184C448.946 257.757 448.86 257.331 448.732 256.904C448.647 256.52 448.54 256.051 448.412 255.496ZM476.384 241.16C476.597 241.373 476.704 241.501 476.704 241.544C476.704 241.629 476.576 241.885 476.32 242.312C476.106 242.739 475.808 243.187 475.424 243.656C475.04 244.125 474.613 244.552 474.144 244.936C473.717 245.277 473.29 245.448 472.864 245.448C471.968 245.448 471.242 245.277 470.688 244.936C470.133 244.552 469.664 244.083 469.28 243.528C468.938 242.973 468.661 242.376 468.448 241.736C468.277 241.053 468.128 240.413 468 239.816C467.914 239.517 467.829 239.368 467.744 239.368C467.616 239.368 467.36 239.837 466.976 240.776C466.592 241.672 466.165 242.675 465.696 243.784C465.269 244.851 464.842 245.853 464.416 246.792C464.032 247.688 463.776 248.136 463.648 248.136C462.88 248.136 462.218 247.816 461.664 247.176C461.152 246.493 460.725 245.725 460.384 244.872C460.085 243.976 459.85 243.08 459.68 242.184C459.509 241.245 459.402 240.52 459.36 240.008C459.232 238.856 458.954 236.936 458.528 234.248C458.101 231.56 457.738 228.296 457.44 224.456C457.354 223.645 457.248 222.92 457.12 222.28C457.034 221.597 456.928 220.851 456.8 220.04C456.672 219.229 456.565 218.312 456.48 217.288C456.394 216.264 456.352 215.005 456.352 213.512C456.352 213.427 456.373 213.149 456.416 212.68C456.458 212.211 456.522 211.699 456.608 211.144C456.693 210.589 456.821 210.099 456.992 209.672C457.205 209.245 457.44 209.032 457.696 209.032C457.994 209.032 458.272 209.224 458.528 209.608C458.784 209.949 458.997 210.355 459.168 210.824C459.381 211.293 459.53 211.741 459.616 212.168C459.701 212.595 459.744 212.893 459.744 213.064C459.744 213.704 459.701 214.301 459.616 214.856C459.53 215.411 459.488 215.923 459.488 216.392C459.488 217.032 459.53 217.843 459.616 218.824C459.744 219.805 459.893 220.808 460.064 221.832C460.234 222.856 460.384 223.859 460.512 224.84C460.64 225.779 460.746 226.547 460.832 227.144C460.832 227.187 460.874 227.485 460.96 228.04C461.045 228.595 461.13 229.299 461.216 230.152C461.344 230.963 461.45 231.859 461.536 232.84C461.664 233.779 461.792 234.717 461.92 235.656C462.048 236.552 462.154 237.363 462.24 238.088C462.368 238.771 462.453 239.261 462.496 239.56C462.496 239.688 462.517 239.88 462.56 240.136C462.645 240.349 462.709 240.605 462.752 240.904C462.837 241.203 462.922 241.48 463.008 241.736C463.093 241.992 463.2 242.184 463.328 242.312C463.584 241.8 463.904 241.011 464.288 239.944C464.714 238.877 465.141 237.789 465.568 236.68C466.037 235.571 466.464 234.611 466.848 233.8C467.274 232.947 467.637 232.52 467.936 232.52C468.277 232.52 468.554 232.584 468.768 232.712C468.981 232.84 469.258 232.947 469.6 233.032C470.026 233.203 470.24 233.437 470.24 233.736C470.24 233.992 470.282 234.312 470.368 234.696C470.453 235.208 470.581 235.891 470.752 236.744C470.965 237.555 471.2 238.365 471.456 239.176C471.712 239.944 472.01 240.605 472.352 241.16C472.693 241.715 473.034 241.992 473.376 241.992C473.546 241.992 473.781 241.779 474.08 241.352C474.378 240.883 474.784 240.627 475.296 240.584C475.381 240.584 475.53 240.648 475.744 240.776C475.957 240.861 476.17 240.989 476.384 241.16ZM534.934 238.344C534.934 238.941 534.764 239.56 534.422 240.2C534.124 240.84 533.74 241.48 533.27 242.12C532.801 242.76 532.289 243.379 531.734 243.976C531.18 244.531 530.668 245.021 530.198 245.448C529.046 246.472 527.852 247.453 526.614 248.392C525.42 249.288 524.161 250.099 522.838 250.824C521.558 251.549 520.214 252.125 518.806 252.552C517.398 252.979 515.926 253.192 514.39 253.192C509.74 253.192 507.414 250.803 507.414 246.024C507.414 245.555 507.606 244.637 507.99 243.272C508.374 241.907 508.865 240.349 509.462 238.6C510.06 236.851 510.764 235.016 511.574 233.096C512.385 231.176 513.217 229.427 514.07 227.848C514.924 226.227 515.756 224.904 516.566 223.88C517.42 222.856 518.209 222.344 518.934 222.344C519.404 222.344 519.745 222.493 519.958 222.792C520.214 223.091 520.342 223.411 520.342 223.752C520.3 224.008 520.001 224.563 519.446 225.416C518.892 226.227 518.316 227.059 517.718 227.912C517.633 228.04 517.484 228.253 517.27 228.552C517.057 228.851 516.844 229.149 516.63 229.448C516.374 229.789 516.118 230.152 515.862 230.536C515.692 230.835 515.308 231.603 514.71 232.84C514.156 234.035 513.558 235.443 512.918 237.064C512.278 238.643 511.702 240.307 511.19 242.056C510.678 243.763 510.422 245.256 510.422 246.536C510.422 247.261 510.572 247.837 510.87 248.264C511.212 248.691 511.596 249.011 512.022 249.224C512.492 249.437 512.961 249.587 513.43 249.672C513.942 249.715 514.39 249.736 514.774 249.736C516.353 249.736 518.017 249.395 519.766 248.712C521.558 247.987 523.265 247.048 524.886 245.896C526.508 244.744 528.001 243.421 529.366 241.928C530.732 240.392 531.798 238.813 532.566 237.192C532.737 236.893 532.908 236.701 533.078 236.616C533.292 236.531 533.484 236.488 533.654 236.488C533.996 236.488 534.294 236.723 534.55 237.192C534.806 237.661 534.934 238.045 534.934 238.344ZM551.86 239.176C551.86 240.115 551.732 241.011 551.476 241.864C551.22 242.717 550.878 243.464 550.452 244.104C550.025 244.744 549.513 245.256 548.916 245.64C548.361 245.981 547.742 246.152 547.06 246.152C545.865 246.152 544.926 245.811 544.244 245.128C543.561 244.445 543.028 243.656 542.644 242.76C542.302 241.864 542.068 240.968 541.94 240.072C541.854 239.133 541.812 238.429 541.812 237.96C541.812 237.192 541.918 236.339 542.132 235.4C542.388 234.419 542.708 233.523 543.092 232.712C543.518 231.901 543.988 231.219 544.5 230.664C545.012 230.109 545.545 229.832 546.1 229.832C546.228 229.832 546.42 229.875 546.676 229.96C546.974 230.045 547.273 230.173 547.572 230.344C547.87 230.515 548.126 230.728 548.34 230.984C548.596 231.24 548.766 231.539 548.852 231.88C549.321 231.923 549.79 232.093 550.26 232.392C550.729 232.691 550.985 232.925 551.028 233.096C551.369 234.205 551.582 235.315 551.668 236.424C551.796 237.533 551.86 238.451 551.86 239.176ZM548.98 238.024C548.98 237.384 548.916 236.723 548.788 236.04C548.66 235.315 548.404 234.589 548.02 233.864C547.934 233.907 547.828 233.928 547.7 233.928C547.529 233.928 547.38 233.907 547.252 233.864C547.166 233.821 547.081 233.8 546.996 233.8C546.484 233.8 546.078 233.949 545.78 234.248C545.481 234.504 545.246 234.867 545.076 235.336C544.948 235.763 544.862 236.232 544.82 236.744C544.777 237.256 544.756 237.747 544.756 238.216C544.756 238.685 544.777 239.219 544.82 239.816C544.862 240.371 544.948 240.904 545.076 241.416C545.246 241.928 545.46 242.376 545.716 242.76C545.972 243.101 546.313 243.272 546.74 243.272C547.166 243.272 547.529 243.059 547.828 242.632C548.126 242.163 548.361 241.629 548.532 241.032C548.702 240.435 548.809 239.859 548.852 239.304C548.937 238.707 548.98 238.28 548.98 238.024ZM576.453 242.696C576.453 242.909 576.347 243.123 576.133 243.336C575.963 243.507 575.856 243.699 575.813 243.912C575.813 244.381 575.899 244.829 576.069 245.256C576.283 245.683 576.389 246.195 576.389 246.792C576.389 247.347 576.219 247.624 575.877 247.624C575.451 247.624 575.131 247.688 574.917 247.816C574.747 247.901 574.427 247.987 573.957 248.072C573.701 248.072 573.424 247.837 573.125 247.368C572.955 247.155 572.805 246.899 572.677 246.6C572.677 246.557 572.549 246.643 572.293 246.856C572.08 247.069 571.696 247.325 571.141 247.624C570.629 247.88 569.904 248.136 568.965 248.392C568.069 248.605 566.917 248.712 565.509 248.712C564.315 248.712 563.269 248.456 562.373 247.944C561.477 247.389 560.731 246.685 560.133 245.832C559.579 244.979 559.152 244.019 558.853 242.952C558.597 241.843 558.469 240.733 558.469 239.624C558.469 238.6 558.576 237.64 558.789 236.744C559.045 235.805 559.387 234.995 559.813 234.312C560.24 233.587 560.773 233.011 561.413 232.584C562.053 232.157 562.8 231.944 563.653 231.944C564.464 231.944 565.275 232.2 566.085 232.712C566.896 233.224 567.621 233.779 568.261 234.376C568.901 234.973 569.413 235.528 569.797 236.04C570.224 236.509 570.437 236.744 570.437 236.744C569.84 233.416 569.307 230.408 568.837 227.72C568.624 226.568 568.411 225.437 568.197 224.328C568.027 223.176 567.856 222.152 567.685 221.256C567.515 220.36 567.365 219.613 567.237 219.016C567.152 218.376 567.109 217.992 567.109 217.864C567.067 217.608 567.024 217.16 566.981 216.52C566.939 215.837 566.896 215.133 566.853 214.408C566.811 213.683 566.768 213.021 566.725 212.424C566.683 211.827 566.64 211.443 566.597 211.272C566.469 210.845 566.299 210.312 566.085 209.672C565.915 209.032 565.829 208.669 565.829 208.584C565.829 208.371 565.936 208.115 566.149 207.816C566.363 207.475 566.64 207.304 566.981 207.304C567.237 207.304 567.472 207.325 567.685 207.368C567.899 207.411 568.091 207.539 568.261 207.752C568.432 207.965 568.581 208.307 568.709 208.776C568.88 209.203 569.029 209.821 569.157 210.632C569.2 211.059 569.328 211.869 569.541 213.064C569.755 214.259 569.968 215.56 570.181 216.968C570.395 218.376 570.608 219.72 570.821 221C571.035 222.28 571.184 223.219 571.269 223.816C571.483 225.437 571.76 227.208 572.101 229.128C572.485 231.005 572.869 232.819 573.253 234.568C573.637 236.317 574.021 237.875 574.405 239.24C574.789 240.563 575.131 241.459 575.429 241.928C575.515 242.099 575.685 242.227 575.941 242.312C576.197 242.355 576.368 242.483 576.453 242.696ZM571.717 243.976C571.675 243.848 571.397 243.315 570.885 242.376C570.416 241.395 569.797 240.349 569.029 239.24C568.304 238.088 567.472 237.064 566.533 236.168C565.637 235.272 564.763 234.824 563.909 234.824C563.184 234.824 562.587 235.379 562.117 236.488C561.691 237.597 561.477 238.877 561.477 240.328C561.477 241.949 561.947 243.251 562.885 244.232C563.867 245.213 564.955 245.704 566.149 245.704C567.173 245.704 568.24 245.533 569.349 245.192C570.459 244.851 571.248 244.445 571.717 243.976ZM585.18 223.56C585.18 223.645 585.03 223.816 584.732 224.072C584.433 224.328 584.07 224.605 583.644 224.904C583.26 225.16 582.854 225.395 582.428 225.608C582.001 225.821 581.66 225.928 581.404 225.928C581.233 225.928 580.998 225.928 580.7 225.928C580.444 225.885 580.166 225.8 579.868 225.672C579.612 225.544 579.377 225.373 579.164 225.16C578.95 224.904 578.844 224.584 578.844 224.2C578.844 223.603 579.057 223.048 579.484 222.536C579.91 221.981 580.465 221.704 581.148 221.704C581.276 221.704 581.553 221.768 581.98 221.896C582.449 221.981 582.918 222.109 583.388 222.28C583.857 222.451 584.262 222.643 584.604 222.856C584.988 223.069 585.18 223.304 585.18 223.56ZM587.292 247.496C587.292 247.795 587.057 248.051 586.588 248.264C586.161 248.477 585.841 248.584 585.628 248.584C585.201 248.584 584.817 248.307 584.476 247.752C584.134 247.197 583.836 246.557 583.58 245.832C583.324 245.107 583.11 244.424 582.94 243.784C582.769 243.101 582.641 242.632 582.556 242.376C582.428 241.949 582.257 241.437 582.044 240.84C581.83 240.243 581.617 239.667 581.404 239.112C581.233 238.557 581.084 238.067 580.956 237.64C580.828 237.213 580.764 236.979 580.764 236.936C580.764 236.339 580.87 235.784 581.084 235.272C581.34 234.76 581.638 234.504 581.98 234.504C582.364 234.504 582.769 234.803 583.196 235.4C583.622 235.997 584.028 236.765 584.412 237.704C584.838 238.6 585.222 239.603 585.564 240.712C585.905 241.779 586.204 242.803 586.46 243.784C586.716 244.723 586.908 245.555 587.036 246.28C587.206 246.963 587.292 247.368 587.292 247.496ZM610.541 245.128C610.541 245.384 610.456 245.64 610.285 245.896C610.115 246.152 609.901 246.387 609.645 246.6C609.432 246.813 609.176 247.005 608.877 247.176C608.621 247.304 608.387 247.368 608.173 247.368C607.448 247.368 606.509 247.219 605.357 246.92C604.248 246.579 603.352 246.067 602.669 245.384C601.944 244.659 601.304 243.805 600.749 242.824C600.195 241.8 599.576 240.307 598.893 238.344C598.424 240.221 597.869 242.077 597.229 243.912C596.632 245.747 595.651 247.432 594.285 248.968C594.2 249.053 594.072 249.096 593.901 249.096C593.603 249.096 593.283 248.947 592.941 248.648C592.6 248.349 592.429 248.051 592.429 247.752C592.429 247.453 592.387 246.771 592.301 245.704C592.259 244.595 592.195 243.379 592.109 242.056C592.024 240.691 591.939 239.325 591.853 237.96C591.811 236.552 591.789 235.4 591.789 234.504C591.789 234.077 591.811 233.523 591.853 232.84C591.896 232.115 592.024 231.496 592.237 230.984C592.28 230.899 592.429 230.728 592.685 230.472C592.984 230.216 593.304 230.088 593.645 230.088C593.944 230.088 594.115 230.28 594.157 230.664C594.2 231.048 594.221 231.475 594.221 231.944V242.056C594.221 242.269 594.243 242.568 594.285 242.952C594.371 243.336 594.477 243.613 594.605 243.784C595.075 242.76 595.501 241.565 595.885 240.2C596.312 238.792 596.717 237.469 597.101 236.232C597.485 234.952 597.869 233.885 598.253 233.032C598.637 232.136 599.021 231.688 599.405 231.688C599.832 231.688 600.173 231.773 600.429 231.944C600.685 232.115 600.899 232.456 601.069 232.968C601.283 234.205 601.453 235.315 601.581 236.296C601.709 237.235 601.859 238.088 602.029 238.856C602.243 239.624 602.52 240.349 602.861 241.032C603.245 241.672 603.757 242.269 604.397 242.824C604.995 243.379 605.656 243.784 606.381 244.04C607.149 244.296 607.811 244.424 608.365 244.424C608.621 244.424 608.899 244.381 609.197 244.296C609.496 244.168 609.709 244.104 609.837 244.104C610.008 244.104 610.157 244.253 610.285 244.552C610.456 244.851 610.541 245.043 610.541 245.128ZM629.713 247.368C629.713 247.837 629.543 248.157 629.201 248.328C628.86 248.499 628.689 248.733 628.689 249.032C628.647 248.989 628.732 249.224 628.945 249.736C629.159 250.248 629.351 250.781 629.521 251.336C629.82 252.488 630.076 253.491 630.289 254.344C630.545 255.197 630.737 255.987 630.865 256.712C631.036 257.437 631.164 258.163 631.249 258.888C631.335 259.613 631.377 260.424 631.377 261.32C631.377 262.216 631.228 263.133 630.929 264.072C630.631 265.011 630.204 265.843 629.649 266.568C629.095 267.293 628.412 267.891 627.601 268.36C626.791 268.829 625.873 269.064 624.849 269.064C623.271 269.064 622.012 268.744 621.073 268.104C620.177 267.464 619.495 266.739 619.025 265.928C618.556 265.117 618.257 264.307 618.129 263.496C618.001 262.728 617.937 262.216 617.937 261.96C617.937 260.381 618.343 258.803 619.153 257.224C619.964 255.645 620.86 254.216 621.841 252.936C622.823 251.656 623.719 250.589 624.529 249.736C625.34 248.883 625.745 248.392 625.745 248.264L625.041 246.152C624.615 246.664 624.231 247.24 623.889 247.88C623.591 248.477 623.249 249.053 622.865 249.608C622.524 250.12 622.097 250.568 621.585 250.952C621.116 251.293 620.519 251.464 619.793 251.464C619.025 251.464 618.257 251.229 617.489 250.76C616.721 250.291 616.039 249.587 615.441 248.648C614.844 247.709 614.353 246.579 613.969 245.256C613.628 243.933 613.457 242.397 613.457 240.648C613.457 239.667 613.607 238.451 613.905 237C614.204 235.507 614.673 234.077 615.313 232.712C615.953 231.347 616.743 230.195 617.681 229.256C618.663 228.275 619.793 227.784 621.073 227.784C621.799 227.784 622.46 227.912 623.057 228.168C623.697 228.424 624.017 228.744 624.017 229.128C624.017 229.469 623.953 229.747 623.825 229.96C623.697 230.173 623.527 230.387 623.313 230.6C623.185 230.515 623.036 230.429 622.865 230.344C622.737 230.259 622.545 230.216 622.289 230.216C621.351 230.216 620.497 230.643 619.729 231.496C619.004 232.307 618.385 233.331 617.873 234.568C617.361 235.763 616.956 237.021 616.657 238.344C616.401 239.667 616.273 240.819 616.273 241.8C616.273 243.976 616.636 245.64 617.361 246.792C618.087 247.901 618.855 248.456 619.665 248.456C620.049 248.456 620.455 248.179 620.881 247.624C621.351 247.027 621.777 246.387 622.161 245.704C622.588 244.979 622.951 244.296 623.249 243.656C623.548 243.016 623.719 242.632 623.761 242.504C623.847 242.077 623.889 241.587 623.889 241.032C623.889 240.563 623.868 240.051 623.825 239.496C623.825 238.899 623.825 238.301 623.825 237.704C623.825 236.595 623.911 235.677 624.081 234.952C624.252 234.184 624.679 233.8 625.361 233.8C626.044 233.8 626.535 234.013 626.833 234.44C627.132 234.824 627.281 235.293 627.281 235.848C627.281 236.232 627.26 236.701 627.217 237.256C627.217 237.768 627.217 238.28 627.217 238.792C627.217 239.261 627.196 239.688 627.153 240.072C627.153 240.413 627.153 240.627 627.153 240.712C627.153 240.968 627.175 241.352 627.217 241.864C627.303 242.333 627.367 242.824 627.409 243.336C627.495 243.805 627.559 244.253 627.601 244.68C627.687 245.064 627.751 245.32 627.793 245.448C627.836 245.576 627.9 245.768 627.985 246.024C628.071 246.28 628.156 246.472 628.241 246.6C628.284 246.515 628.369 246.429 628.497 246.344C628.625 246.216 628.732 246.109 628.817 246.024C629.031 246.152 629.223 246.408 629.393 246.792C629.607 247.133 629.713 247.325 629.713 247.368ZM627.537 255.496C627.367 254.813 627.175 254.131 626.961 253.448C626.748 252.765 626.535 252.061 626.321 251.336C625.596 252.232 624.892 253.085 624.209 253.896C623.569 254.749 622.972 255.581 622.417 256.392C621.905 257.203 621.479 258.035 621.137 258.888C620.839 259.784 620.689 260.723 620.689 261.704C620.689 263.027 621.052 264.115 621.777 264.968C622.545 265.821 623.377 266.248 624.273 266.248C625.255 266.248 626.172 265.885 627.025 265.16C627.921 264.435 628.369 263.389 628.369 262.024C628.369 261.128 628.348 260.381 628.305 259.784C628.263 259.187 628.199 258.653 628.113 258.184C628.071 257.757 627.985 257.331 627.857 256.904C627.772 256.52 627.665 256.051 627.537 255.496Z"
    fill="black"
   />
  </g>
 </g>
 <defs>
  <linearGradient
   id="paint0_linear"
   x1="952.567"
   y1="77.9595"
   x2="911.472"
   y2="238.798"
   gradientUnits="userSpaceOnUse"
  >
   <stop stop-color="#2EB9F4" />
   <stop offset="1" stop-color="#73E87F" stop-opacity="0.95" />
  </linearGradient>

  <style type="text/css" id="style1">
    .Shoe {
	  animation: dangle 1s infinite alternate linear;
    }
    .Hair {
      animation: breeze 0.8s infinite alternate linear;
    }
    .Mouse {
      animation: led 0.7s infinite alternate linear;
    }
    .Code {
      animation: coding 1s infinite alternate linear;
    }

    @keyframes dangle {
      from {
        transform-origin: 75% 75%;
        transform: rotate(-7deg);
      }
      to {
        transform-origin: 75% 75%;
        transform: rotate(4.3deg);
      }
    }
    @keyframes breeze {
      from {
        transform-origin: 45% 90%;
        transform: rotate(-0.25deg);
      }
      to {
        transform-origin: 45% 90%;
        transform: rotate(0deg);
      }
    }
    @keyframes led {
      from {
        fill: orange;
      }
      to {
        fill: cyan;
      }
    }
    @keyframes coding {
      0%   {fill: #01435A;}
      25%  {fill: #0CDBF4;}
      50%  {fill: #F19109;}
      100% {fill: #F27501;}
    }
  </style>
 </defs>
</svg>
